<?xml version="1.0" ?><svg viewBox="0 0 48 48" xmlns="http://www.w3.org/2000/svg" xmlns:xlink="http://www.w3.org/1999/xlink"><defs><style>.cls-1{fill:url(#linear-gradient);}.cls-2{fill:url(#linear-gradient-2);}.cls-3{fill:url(#linear-gradient-3);}.cls-4{fill:#333;}.cls-5{fill:#fff;}.cls-6{fill:#e6e6e6;}.cls-7{fill:gray;}</style><linearGradient gradientUnits="userSpaceOnUse" id="linear-gradient" x1="21" x2="21" y1="8.95" y2="35.98"><stop offset="0" stop-color="#66bcef"/><stop offset="1" stop-color="#4096c9"/></linearGradient><linearGradient id="linear-gradient-2" x1="13.82" x2="23.87" xlink:href="#linear-gradient" y1="-6.61" y2="25.36"/><linearGradient gradientUnits="userSpaceOnUse" id="linear-gradient-3" x1="27" x2="27" y1="12.95" y2="39.98"><stop offset="0" stop-color="#e6e6e6"/><stop offset="1" stop-color="#bababa"/></linearGradient></defs><title/><g id="icons"><g data-name="Layer 3" id="Layer_3"><rect class="cls-1" height="26" rx="5" ry="5" width="35" x="3.5" y="9"/><path class="cls-2" d="M37.56,11.09a7,7,0,0,0-1-.09H13.47a6,6,0,0,0-6,6V31A6,6,0,0,0,9,35H33.5a5,5,0,0,0,5-5V14A5,5,0,0,0,37.56,11.09Z"/><rect class="cls-3" height="26" rx="5" ry="5" width="35" x="9.5" y="13"/><rect class="cls-4" height="4" width="35" x="9.5" y="20"/><rect class="cls-5" height="3" width="16" x="24.5" y="26"/><rect class="cls-6" height="2" width="8" x="13.5" y="33"/><rect class="cls-6" height="2" width="6" x="24.5" y="33"/><rect class="cls-6" height="2" width="7" x="33.5" y="33"/><rect class="cls-7" height="2" width="8" x="13.5" y="32"/><rect class="cls-7" height="2" width="6" x="24.5" y="32"/><rect class="cls-7" height="2" width="7" x="33.5" y="32"/></g></g></svg>