<?xml version="1.0" ?><svg viewBox="0 0 512 512" xmlns="http://www.w3.org/2000/svg"><defs><style>.cls-1{fill:#0071af;}.cls-2{fill:#00659d;}.cls-3{fill:#00b378;}.cls-4{fill:#096;}.cls-5{fill:#00a16c;}.cls-6{fill:#31c292;}.cls-7{fill:#ee9b9b;}.cls-8{fill:#bdecdc;}.cls-9{fill:#00895c;}.cls-10{fill:#2aa57d;}.cls-11{fill:#a1c9bc;}</style></defs><title/><g data-name="/ FLAT" id="_FLAT"><polygon class="cls-1" points="256 32 72 168 72 496 440 496 440 168 256 32"/><rect class="cls-2" height="48" width="240" x="136" y="160"/><path class="cls-3" d="M344,424V192H168V424a23.99994,23.99994,0,0,0,24,24H368A23.99994,23.99994,0,0,1,344,424Z"/><path class="cls-4" d="M362.002,447.24438a23.8357,23.8357,0,0,1-5.44189-2.14111q-1.0199-.55407-1.97876-1.20215a24.1329,24.1329,0,0,1-6.48242-6.48242q-.6471-.95765-1.20215-1.97888A23.89273,23.89273,0,0,1,344,424V272.00024A176.01871,176.01871,0,0,1,185.5896,447.12732,24.0089,24.0089,0,0,0,192,448H368A24.04328,24.04328,0,0,1,362.002,447.24438Z"/><path class="cls-5" d="M440,288v88a24,24,0,0,0,48,0V288Z"/><path class="cls-5" d="M344,248V423.45947c0,13.45532,11.01123,24.79126,24.46411,24.53614A24,24,0,0,0,392,424V272a23.99994,23.99994,0,0,1,24-24Z"/><path class="cls-6" d="M392,400V272a24,24,0,0,1,24-24h0a24,24,0,0,1,24,24V376a24,24,0,0,0,24,24H392Z"/><polygon class="cls-7" points="241.14 291.884 254.86 300.116 286.13 248 254.13 248 270.86 220.116 257.14 211.884 225.87 264 257.87 264 241.14 291.884"/><path class="cls-8" d="M192,312v80H320V312Zm112,32H264V328h40Zm-56-16v16H208V328Zm-40,32h40v16H208Zm56,16V360h40v16Z"/><rect class="cls-8" height="16" width="80" x="192" y="408"/><path class="cls-9" d="M440,328v48a23.9996,23.9996,0,0,0,40.96094,16.97961A72.00276,72.00276,0,0,1,440,328Z"/><path class="cls-10" d="M392,328v72h72A71.99989,71.99989,0,0,1,392,328Z"/><path class="cls-9" d="M344,376v48a24,24,0,0,0,48,0A47.99987,47.99987,0,0,1,344,376Z"/><path class="cls-11" d="M272,424V413.98584A176.24427,176.24427,0,0,1,256.75879,424Z"/><path class="cls-11" d="M320,360.75891A176.59368,176.59368,0,0,1,296.73169,392H320Z"/><rect class="cls-11" height="16" width="32" x="288" y="408"/></g></svg>