<svg width="272" height="174" viewBox="0 0 272 174" fill="none" xmlns="http://www.w3.org/2000/svg">
<g clip-path="url(#clip0_4579_45084)">
<path opacity="0.2" d="M212.557 68.0191C225.101 68.0191 235.27 57.8503 235.27 45.3064C235.27 32.7626 225.101 22.5938 212.557 22.5938C200.014 22.5938 189.845 32.7626 189.845 45.3064C189.845 57.8503 200.014 68.0191 212.557 68.0191Z" fill="#20B757"/>
<path d="M61.6405 173.997C61.0538 173.546 60.4715 173.089 59.8934 172.628L60.1004 172.368C60.6774 172.828 61.2576 173.284 61.8432 173.734L61.6405 173.997ZM231.826 172.507L231.586 172.278C232.094 171.747 232.598 171.2 233.083 170.652L233.332 170.873C232.842 171.423 232.336 171.973 231.826 172.507ZM58.1709 171.226C57.6014 170.753 57.0351 170.274 56.4753 169.793L56.6919 169.541C57.2507 170.022 57.8148 170.499 58.3833 170.969L58.1709 171.226ZM234.78 169.186L234.524 168.974C234.991 168.408 235.457 167.828 235.905 167.246L236.168 167.448C235.718 168.033 235.251 168.617 234.78 169.186ZM54.8064 168.327C54.2552 167.832 53.7082 167.333 53.1676 166.828L53.395 166.585C53.9345 167.088 54.4793 167.586 55.0295 168.079L54.8075 168.327H54.8064ZM237.493 165.665L237.222 165.472C237.647 164.879 238.069 164.265 238.476 163.651L238.754 163.834C238.344 164.453 237.921 165.07 237.494 165.666L237.493 165.665ZM51.5589 165.297C51.028 164.78 50.5024 164.259 49.9833 163.731L50.2203 163.497C50.7373 164.023 51.2618 164.543 51.7905 165.058L51.5589 165.297ZM48.4432 162.131C47.9348 161.591 47.4339 161.047 46.9384 160.497L47.1851 160.274C47.6785 160.822 48.1783 161.365 48.6845 161.902L48.4421 162.13L48.4432 162.131ZM239.945 161.957L239.661 161.783C239.824 161.516 239.985 161.248 240.145 160.978C240.36 160.612 240.57 160.244 240.776 159.874L241.066 160.035C240.859 160.407 240.649 160.778 240.431 161.146C240.271 161.418 240.109 161.688 239.945 161.956V161.957ZM45.4712 158.83C44.9886 158.268 44.5135 157.7 44.0448 157.126L44.3022 156.916C44.7687 157.487 45.2428 158.053 45.7233 158.613L45.4712 158.83ZM242.098 158.066L241.8 157.918C242.126 157.261 242.439 156.587 242.732 155.916L243.036 156.049C242.741 156.724 242.425 157.402 242.098 158.065V158.066ZM42.6602 155.39C42.2097 154.811 41.7593 154.215 41.3195 153.619L41.5877 153.422C42.0252 154.016 42.4746 154.609 42.9229 155.187L42.6602 155.391V155.39ZM243.879 153.993L243.568 153.874C243.832 153.183 244.081 152.482 244.307 151.793L244.624 151.897C244.395 152.592 244.145 153.297 243.879 153.993ZM40.0261 151.814C39.6024 151.206 39.1831 150.588 38.7798 149.976L39.0576 149.794C39.4587 150.403 39.877 151.02 40.2985 151.624L40.0261 151.814ZM245.268 149.768L244.948 149.679C245.143 148.973 245.325 148.252 245.486 147.537L245.81 147.611C245.647 148.331 245.465 149.057 245.268 149.768ZM37.5829 148.103C37.1946 147.478 36.8096 146.838 36.4385 146.2L36.7259 146.032C37.096 146.667 37.4799 147.305 37.866 147.929L37.5829 148.103ZM246.249 145.431L245.921 145.373C246.049 144.646 246.16 143.911 246.251 143.189L246.581 143.23C246.49 143.958 246.378 144.698 246.25 145.431H246.249ZM35.3478 144.264C35.1955 143.985 35.0453 143.705 34.8962 143.424C34.6978 143.049 34.5037 142.672 34.3128 142.296L34.6099 142.146C34.7997 142.521 34.9927 142.895 35.1901 143.268C35.3381 143.548 35.4883 143.827 35.6395 144.105L35.3478 144.264ZM246.803 141.016L246.472 140.992C246.527 140.257 246.565 139.515 246.583 138.786L246.916 138.795C246.897 139.529 246.86 140.276 246.804 141.016H246.803ZM33.3443 140.294C33.0343 139.625 32.7308 138.941 32.4434 138.262L32.7501 138.132C33.0365 138.808 33.3379 139.488 33.6467 140.155L33.3454 140.294H33.3443ZM246.582 136.578C246.563 135.845 246.524 135.102 246.468 134.374L246.8 134.348C246.857 135.083 246.895 135.831 246.915 136.57L246.582 136.578ZM31.6111 136.2C31.3451 135.507 31.0888 134.804 30.8496 134.11L31.1639 134.002C31.402 134.692 31.6561 135.392 31.9211 136.08L31.6111 136.2ZM246.239 132.179C246.143 131.45 246.028 130.717 245.894 129.998L246.221 129.937C246.356 130.661 246.473 131.401 246.569 132.135L246.239 132.179ZM30.16 131.997C29.9433 131.293 29.7363 130.573 29.5444 129.861L29.865 129.775C30.057 130.484 30.2629 131.198 30.4785 131.9L30.1611 131.997H30.16ZM245.43 127.841C245.257 127.127 245.06 126.411 244.848 125.712L245.166 125.616C245.38 126.321 245.578 127.042 245.753 127.763L245.429 127.841H245.43ZM29.0017 127.705C28.8333 126.986 28.6767 126.253 28.5351 125.531L28.8612 125.467C29.0027 126.185 29.1583 126.913 29.3256 127.629L29.0017 127.704V127.705ZM244.146 123.62C243.895 122.935 243.62 122.245 243.327 121.57L243.632 121.438C243.928 122.118 244.205 122.813 244.459 123.505L244.146 123.62ZM28.1437 123.343C28.0257 122.61 27.9206 121.87 27.8294 121.142L28.1597 121.102C28.2498 121.825 28.3549 122.561 28.4718 123.291L28.1437 123.343ZM242.388 119.573C242.055 118.917 241.7 118.265 241.331 117.635L241.619 117.468C241.99 118.103 242.348 118.76 242.684 119.423L242.386 119.573H242.388ZM27.5924 118.931C27.527 118.195 27.4733 117.449 27.4347 116.713L27.7672 116.696C27.8058 117.427 27.8594 118.169 27.9249 118.902L27.5935 118.931H27.5924ZM240.161 115.765C239.756 115.159 239.324 114.554 238.878 113.968L239.143 113.767C239.594 114.359 240.029 114.968 240.438 115.58L240.161 115.765ZM27.3554 114.491C27.3489 114.124 27.3457 113.757 27.3457 113.391C27.3457 113.016 27.3489 112.641 27.3564 112.265L27.6889 112.271C27.6825 112.644 27.6782 113.017 27.6782 113.391C27.6782 113.756 27.6814 114.121 27.6878 114.485L27.3554 114.491ZM237.486 112.253C237.009 111.701 236.507 111.154 235.994 110.629L236.232 110.397C236.75 110.927 237.257 111.479 237.738 112.037L237.486 112.253ZM27.7683 110.058L27.4358 110.04C27.4765 109.303 27.5302 108.555 27.5977 107.82L27.9292 107.85C27.8627 108.581 27.808 109.324 27.7683 110.058ZM234.404 109.098C233.861 108.606 233.297 108.125 232.725 107.667L232.933 107.408C233.51 107.87 234.08 108.356 234.628 108.852L234.405 109.099L234.404 109.098ZM230.963 106.339C230.367 105.916 229.749 105.505 229.127 105.116L229.303 104.834C229.931 105.226 230.554 105.641 231.155 106.067L230.963 106.339ZM28.1694 105.649L27.8401 105.606C27.9345 104.869 28.0439 104.128 28.164 103.404L28.4922 103.459C28.3721 104.178 28.2638 104.915 28.1694 105.649ZM227.222 103.999C226.584 103.649 225.923 103.31 225.259 102.991L225.403 102.691C226.072 103.013 226.738 103.355 227.382 103.708L227.222 103.999ZM223.243 102.091C222.575 101.815 221.882 101.55 221.183 101.302L221.293 100.989C221.998 101.238 222.697 101.506 223.371 101.785L223.243 102.092V102.091ZM28.8955 101.283L28.5694 101.216C28.7175 100.492 28.8815 99.7618 29.0574 99.0454L29.3803 99.1237C29.2065 99.8358 29.0424 100.563 28.8955 101.283ZM219.088 100.617C218.403 100.411 217.686 100.213 216.96 100.03L217.042 99.7071C217.772 99.8927 218.493 100.091 219.184 100.298L219.088 100.617ZM214.808 99.5312C214.11 99.3832 213.379 99.2427 212.636 99.1119L212.694 98.7848C213.44 98.9167 214.174 99.0583 214.876 99.2063L214.808 99.5312ZM210.451 98.7612C209.722 98.655 208.989 98.5585 208.256 98.4684L208.297 98.1381C209.032 98.2271 209.767 98.3247 210.499 98.4308L210.451 98.7601V98.7612ZM206.054 98.2239C205.32 98.1488 204.585 98.0801 203.848 98.0169L203.877 97.6854C204.615 97.7498 205.352 97.8184 206.088 97.8924L206.055 98.2239H206.054ZM201.637 97.8356C200.9 97.7788 200.164 97.7241 199.427 97.6704L199.451 97.339C200.188 97.3927 200.926 97.4473 201.664 97.5042L201.638 97.8356H201.637ZM197.214 97.5117C196.477 97.4581 195.739 97.4045 195.003 97.3476L195.027 97.0162C195.764 97.073 196.5 97.1267 197.238 97.1803L197.213 97.5117H197.214ZM192.792 97.1674C192.055 97.1041 191.319 97.0366 190.584 96.9626L190.617 96.6312C191.351 96.7052 192.085 96.7727 192.821 96.8349L192.792 97.1664V97.1674ZM29.9466 96.9851L29.6269 96.8939C29.8297 96.1807 30.0495 95.4653 30.278 94.7671L30.5944 94.8701C30.367 95.5651 30.1493 96.2762 29.9476 96.9851H29.9466ZM188.378 96.7213C187.642 96.6333 186.908 96.5379 186.177 96.4327L186.225 96.1035C186.953 96.2086 187.685 96.304 188.417 96.3909L188.378 96.7213ZM183.985 96.0853C183.25 95.9587 182.516 95.8182 181.803 95.668L181.871 95.3431C182.58 95.4911 183.31 95.6305 184.04 95.7571L183.984 96.0842L183.985 96.0853ZM179.637 95.1704C178.905 94.987 178.185 94.7886 177.493 94.5816L177.588 94.2631C178.275 94.4679 178.992 94.6652 179.718 94.8476L179.637 95.1704ZM175.377 93.892C174.673 93.6431 173.974 93.375 173.297 93.0951L173.425 92.7873C174.096 93.0661 174.79 93.3321 175.488 93.5788L175.378 93.892H175.377ZM31.3205 92.7808L31.0083 92.665C31.2636 91.9743 31.5371 91.2782 31.8213 90.595L32.1281 90.7227C31.846 91.4016 31.5746 92.0944 31.3194 92.7808H31.3205ZM171.267 92.1834C170.6 91.8617 169.936 91.5163 169.293 91.157L169.456 90.8664C170.092 91.2225 170.751 91.5646 171.413 91.8842L171.268 92.1834H171.267ZM167.384 90.0116C166.779 89.6233 166.162 89.2008 165.547 88.7567L165.741 88.4865C166.35 88.9273 166.964 89.3456 167.564 89.7306L167.384 90.0105V90.0116ZM33.0161 88.6988L32.7136 88.5594C33.0247 87.8869 33.3518 87.2145 33.6864 86.5602L33.9824 86.7115C33.65 87.3614 33.325 88.0296 33.015 88.6988H33.0161ZM163.775 87.414C163.219 86.971 162.642 86.4948 162.061 85.9982L162.278 85.7451C162.856 86.2395 163.43 86.7125 163.983 87.1523L163.776 87.4129L163.775 87.414ZM35.0281 84.7648L34.7386 84.6018C35.1 83.9604 35.4797 83.3159 35.8669 82.6874L36.15 82.8622C35.7639 83.4864 35.3864 84.1267 35.0281 84.7648ZM160.394 84.53C159.844 84.0345 159.301 83.5325 158.76 83.0263L158.988 82.7828C159.527 83.288 160.07 83.7888 160.617 84.2822L160.394 84.5289V84.53ZM157.146 81.5022L155.54 79.9739L155.769 79.7326L157.376 81.262L157.146 81.5033V81.5022ZM37.3469 81.0078L37.0713 80.8223C37.4831 80.2109 37.9143 79.6007 38.3508 79.0065L38.6189 79.2038C38.1846 79.7937 37.7577 80.4008 37.3469 81.0078ZM153.927 78.4552C153.387 77.9522 152.843 77.4535 152.293 76.9612L152.515 76.7135C153.066 77.2068 153.612 77.7077 154.154 78.2118L153.927 78.4552ZM39.9617 77.4535L39.7022 77.2454C40.1634 76.6695 40.6417 76.0968 41.1243 75.5423L41.3753 75.7611C40.8948 76.3123 40.4197 76.8818 39.9617 77.4546V77.4535ZM150.625 75.5079C150.044 75.0167 149.467 74.547 148.911 74.1115L149.116 73.8498C149.675 74.2874 150.255 74.7604 150.84 75.2538L150.625 75.5079ZM42.8564 74.1276L42.6151 73.8992C43.1246 73.3597 43.6501 72.8266 44.1756 72.3151L44.4073 72.5532C43.885 73.0615 43.3627 73.5914 42.8564 74.1276ZM147.141 72.787C146.553 72.3623 145.944 71.9354 145.329 71.516L145.517 71.2415C146.133 71.6619 146.745 72.0909 147.335 72.5167L147.141 72.787ZM46.0204 71.0441L45.7984 70.7964C46.3475 70.3041 46.9138 69.8161 47.4833 69.3453L47.6946 69.6016C47.1294 70.0681 46.5652 70.554 46.0204 71.0431V71.0441ZM143.483 70.2944C142.869 69.8987 142.237 69.504 141.607 69.1211L141.78 68.8369C142.413 69.2208 143.046 69.6177 143.663 70.0145L143.483 70.2944ZM49.4267 68.2298L49.2251 67.9649C49.8149 67.5166 50.4198 67.0769 51.0226 66.6565L51.2124 66.9289C50.614 67.3461 50.0123 67.7837 49.4256 68.2288L49.4267 68.2298ZM139.702 67.996C139.061 67.6292 138.417 67.2699 137.768 66.9192L137.927 66.6264C138.578 66.9782 139.225 67.3386 139.867 67.7065L139.702 67.995V67.996ZM135.808 65.8918C135.151 65.5571 134.489 65.23 133.824 64.9115L133.968 64.6112C134.636 64.9308 135.3 65.259 135.96 65.5957L135.808 65.8918ZM53.0518 65.7019L52.8727 65.422C53.4958 65.0241 54.1329 64.6337 54.7689 64.2615L54.9373 64.549C54.3056 64.919 53.6717 65.3062 53.0529 65.703L53.0518 65.7019ZM131.816 63.9795C131.144 63.6759 130.467 63.381 129.788 63.0936L129.918 62.7868C130.6 63.0753 131.279 63.3713 131.954 63.6759L131.817 63.9795H131.816ZM56.8646 63.47L56.708 63.1772C57.3558 62.8319 58.0218 62.4919 58.6889 62.168L58.8348 62.4672C58.172 62.789 57.5092 63.1268 56.8657 63.47H56.8646ZM127.739 62.2548C127.052 61.9824 126.364 61.7197 125.672 61.4633L125.787 61.1512C126.481 61.4076 127.172 61.6725 127.861 61.9449L127.739 62.2538V62.2548ZM60.8393 61.5395L60.7053 61.2349C61.3799 60.9389 62.0706 60.6504 62.757 60.3779L62.8793 60.6868C62.1972 60.9571 61.5107 61.2435 60.8393 61.5384V61.5395ZM123.587 60.719C123.175 60.5774 122.762 60.438 122.349 60.3018C122.062 60.2074 121.774 60.113 121.486 60.0208L121.588 59.7044C121.877 59.7966 122.166 59.891 122.453 59.9854C122.868 60.1227 123.281 60.2621 123.695 60.4048L123.587 60.719ZM64.9492 59.9082L64.8366 59.595C65.5295 59.3462 66.2373 59.1038 66.9387 58.8753L67.0417 59.1917C66.3424 59.4191 65.6389 59.6604 64.9482 59.9082H64.9492ZM119.37 59.3698C118.663 59.1606 117.953 58.959 117.24 58.7659L117.327 58.4453C118.042 58.6394 118.754 58.8421 119.463 59.0512L119.369 59.3698H119.37ZM69.1556 58.5396L69.0623 58.22C69.767 58.0141 70.4877 57.8146 71.2041 57.6269L71.2889 57.9487C70.5756 58.1353 69.8581 58.3337 69.1567 58.5386L69.1556 58.5396ZM115.098 58.2082C114.382 58.0302 113.664 57.8607 112.943 57.6988L113.016 57.3738C113.739 57.5368 114.46 57.7063 115.177 57.8854L115.097 58.2082H115.098ZM73.4361 57.4221L73.361 57.0982C74.0742 56.933 74.8057 56.7754 75.5328 56.6295L75.5982 56.9555C74.8743 57.1014 74.1461 57.258 73.435 57.4221H73.4361ZM110.778 57.2376C110.055 57.0917 109.33 56.9545 108.603 56.8247L108.661 56.4976C109.39 56.6274 110.117 56.7657 110.843 56.9116L110.778 57.2376ZM77.7744 56.5501L77.7175 56.223C78.4415 56.0986 79.1794 55.9817 79.9119 55.8766L79.9591 56.2059C79.2298 56.311 78.494 56.4268 77.7733 56.5512L77.7744 56.5501ZM106.42 56.4622C105.691 56.3496 104.961 56.2445 104.229 56.149L104.272 55.8197C105.006 55.9163 105.739 56.0214 106.471 56.134L106.42 56.4633V56.4622ZM82.1545 55.9195L82.1159 55.5892C82.8474 55.5044 83.5917 55.4272 84.3264 55.3618L84.3564 55.6932C83.625 55.7586 82.8839 55.8348 82.1556 55.9206L82.1545 55.9195ZM102.032 55.8852C101.298 55.8058 100.563 55.7361 99.8286 55.6739L99.8564 55.3425C100.594 55.4047 101.331 55.4755 102.067 55.5548L102.032 55.8852ZM86.5626 55.5227L86.5411 55.1913C87.2758 55.1441 88.0223 55.1065 88.7602 55.0786L88.773 55.4111C88.0394 55.439 87.2951 55.4765 86.5626 55.5237V55.5227ZM97.6213 55.5141C96.8845 55.4701 96.1477 55.4336 95.4109 55.4068L95.4227 55.0743C96.1627 55.1012 96.9017 55.1366 97.6417 55.1816L97.6213 55.513V55.5141ZM90.9846 55.3553L90.9803 55.0229C91.7203 55.0132 92.4604 55.0132 93.2015 55.0229L93.1972 55.3553C92.4582 55.3468 91.7214 55.3468 90.9846 55.3553Z" fill="#20B757" fill-opacity="0.05"/>
<path d="M180.835 23.3134C177.402 23.3134 174.608 20.5206 174.608 17.0864C174.608 13.6522 177.402 10.8594 180.835 10.8594C184.269 10.8594 187.062 13.6533 187.062 17.0864C187.062 20.5195 184.269 23.3134 180.835 23.3134ZM180.835 11.1919C177.586 11.1919 174.941 13.8356 174.941 17.0864C174.941 20.3372 177.585 22.981 180.835 22.981C184.086 22.981 186.73 20.3372 186.73 17.0864C186.73 13.8356 184.086 11.1919 180.835 11.1919Z" fill="#20B757" fill-opacity="0.05"/>
<path d="M35.8237 35.7275C32.3906 35.7275 29.5967 32.9336 29.5967 29.5005C29.5967 26.0673 32.3895 23.2734 35.8237 23.2734C39.2579 23.2734 42.0507 26.0663 42.0507 29.5005C42.0507 32.9347 39.2568 35.7275 35.8237 35.7275ZM35.8237 23.6059C32.574 23.6059 29.9292 26.2497 29.9292 29.5005C29.9292 32.7513 32.5729 35.395 35.8237 35.395C39.0745 35.395 41.7183 32.7513 41.7183 29.5005C41.7183 26.2497 39.0745 23.6059 35.8237 23.6059Z" fill="#20B757" fill-opacity="0.05"/>
<path d="M252.233 85.3988C251.694 85.3988 251.16 85.3302 250.646 85.194L250.73 84.8722C251.422 85.0535 252.158 85.1082 252.869 85.032L252.904 85.3623C252.684 85.3859 252.458 85.3977 252.234 85.3977L252.233 85.3988ZM255.074 84.7145L254.923 84.4185C255.564 84.0882 256.136 83.6485 256.621 83.109L256.867 83.331C256.356 83.9005 255.753 84.366 255.074 84.7135V84.7145ZM248.597 84.2276C247.977 83.7815 247.449 83.2313 247.029 82.5931L247.307 82.4097C247.705 83.0135 248.203 83.5348 248.791 83.9574L248.597 84.2276ZM258.05 81.3994L257.739 81.2803C257.997 80.6079 258.127 79.8989 258.127 79.1718H258.46C258.46 79.9397 258.322 80.6894 258.05 81.3994ZM246.15 80.506C246.054 80.0706 246.006 79.6212 246.006 79.1718C246.006 78.8618 246.028 78.5497 246.075 78.243L246.404 78.2923C246.36 78.583 246.338 78.8779 246.338 79.1718C246.338 79.5976 246.384 80.0223 246.475 80.4352L246.15 80.506ZM258.115 78.7825C258.067 78.0585 257.89 77.3592 257.588 76.705L257.889 76.5656C258.209 77.2584 258.397 77.9963 258.446 78.761L258.115 78.7825ZM247.104 76.2663L246.815 76.1022C247.192 75.4384 247.682 74.8549 248.271 74.368L248.483 74.6243C247.925 75.0855 247.46 75.6378 247.104 76.2663ZM256.35 74.9536C255.832 74.4473 255.233 74.0451 254.57 73.7588L254.702 73.4531C255.403 73.7556 256.035 74.1803 256.583 74.7155L256.351 74.9536H256.35ZM250.356 73.5829L250.251 73.2676C250.971 73.0263 251.731 72.9179 252.494 72.9512L252.48 73.2837C251.759 73.2547 251.037 73.3555 250.357 73.584L250.356 73.5829Z" fill="#20B757" fill-opacity="0.05"/>
<path d="M76.2749 23.2873L75.374 22.3864L76.2749 21.4844L76.5109 21.7193L75.8438 22.3864L76.5109 23.0524L76.2749 23.2873Z" fill="#20B757" fill-opacity="0.05"/>
<path d="M84.9727 31.9908L83.5226 30.5407L83.7575 30.3058L85.2076 31.7559L84.9727 31.9908ZM82.0737 29.0918L80.6236 27.6417L80.8585 27.4068L82.3085 28.8569L82.0737 29.0918ZM79.1746 26.1927L77.7246 24.7427L77.9595 24.5078L79.4095 25.9579L79.1746 26.1927Z" fill="#20B757" fill-opacity="0.05"/>
<path d="M87.3248 34.34L86.4229 33.4391L86.6577 33.2031L87.3248 33.8702L87.9909 33.2031L88.2258 33.4391L87.3248 34.34Z" fill="#20B757" fill-opacity="0.05"/>
<path d="M89.6763 31.9908L89.4414 31.7559L90.8915 30.3058L91.1263 30.5407L89.6763 31.9908ZM92.5753 29.0918L92.3404 28.8569L93.7905 27.4068L94.0253 27.6417L92.5753 29.0918ZM95.4743 26.1927L95.2394 25.9579L96.6895 24.5078L96.9244 24.7427L95.4743 26.1927Z" fill="#20B757" fill-opacity="0.05"/>
<path d="M98.3735 23.2873L98.1387 23.0524L98.8058 22.3864L98.1387 21.7193L98.3735 21.4844L99.2755 22.3864L98.3735 23.2873Z" fill="#20B757" fill-opacity="0.05"/>
<path d="M96.6895 20.272L95.2394 18.822L95.4743 18.5871L96.9244 20.0371L96.6895 20.272ZM93.7905 17.373L92.3404 15.923L92.5753 15.6881L94.0253 17.1381L93.7905 17.373ZM90.8915 14.474L89.4414 13.0239L89.6763 12.7891L91.1263 14.2391L90.8915 14.474Z" fill="#20B757" fill-opacity="0.05"/>
<path d="M86.6577 11.5744L86.4229 11.3384L87.3248 10.4375L88.2258 11.3384L87.9909 11.5744L87.3248 10.9083L86.6577 11.5744Z" fill="#20B757" fill-opacity="0.05"/>
<path d="M77.9595 20.272L77.7246 20.0371L79.1746 18.5871L79.4095 18.822L77.9595 20.272ZM80.8585 17.373L80.6236 17.1381L82.0737 15.6881L82.3085 15.923L80.8585 17.373ZM83.7575 14.474L83.5226 14.2391L84.9727 12.7891L85.2076 13.0239L83.7575 14.474Z" fill="#20B757" fill-opacity="0.05"/>
<path d="M231.598 41.0642L223.566 33.0321L231.598 25L239.631 33.0321L231.598 41.0642ZM224.036 33.0321L231.598 40.5944L239.161 33.0321L231.598 25.4698L224.036 33.0321Z" fill="#20B757" fill-opacity="0.05"/>
<path opacity="0.2" d="M264.249 158.325C270.853 151.721 270.853 141.014 264.249 134.41C257.645 127.806 246.938 127.806 240.334 134.41C233.73 141.014 233.73 151.721 240.334 158.325C246.938 164.929 257.645 164.929 264.249 158.325Z" fill="#20B757"/>
<path opacity="0.2" d="M71.5071 34.0864C80.8464 34.0864 88.4174 26.5153 88.4174 17.176C88.4174 7.83666 80.8464 0.265625 71.5071 0.265625C62.1677 0.265625 54.5967 7.83666 54.5967 17.176C54.5967 26.5153 62.1677 34.0864 71.5071 34.0864Z" fill="#20B757"/>
<path opacity="0.5" d="M181.723 40.2198C182.703 40.2198 183.497 39.4255 183.497 38.4458C183.497 37.4661 182.703 36.6719 181.723 36.6719C180.743 36.6719 179.949 37.4661 179.949 38.4458C179.949 39.4255 180.743 40.2198 181.723 40.2198Z" fill="#22C55E" fill-opacity="0.26"/>
<path opacity="0.5" d="M253.711 115.095C254.691 115.095 255.485 114.301 255.485 113.321C255.485 112.341 254.691 111.547 253.711 111.547C252.732 111.547 251.938 112.341 251.938 113.321C251.938 114.301 252.732 115.095 253.711 115.095Z" fill="#22C55E" fill-opacity="0.26"/>
<path opacity="0.5" d="M111.325 19.1583C112.224 18.7684 112.637 17.7237 112.247 16.8249C111.857 15.9261 110.812 15.5136 109.914 15.9034C109.015 16.2933 108.602 17.338 108.992 18.2368C109.382 19.1356 110.427 19.5482 111.325 19.1583Z" fill="#22C55E" fill-opacity="0.26"/>
<path opacity="0.5" d="M38.189 55.376C39.1687 55.376 39.9629 54.5818 39.9629 53.6021C39.9629 52.6223 39.1687 51.8281 38.189 51.8281C37.2093 51.8281 36.415 52.6223 36.415 53.6021C36.415 54.5818 37.2093 55.376 38.189 55.376Z" fill="#22C55E" fill-opacity="0.26"/>
<path d="M152.826 132.18H119.123V168.321H152.826V132.18Z" fill="#22C55E" fill-opacity="0.26"/>
<path opacity="0.15" d="M152.826 132.18H119.123V152.591H152.826V132.18Z" fill="#343E56"/>
<path d="M112.321 165.367H159.625C164.315 165.367 168.124 169.176 168.124 173.866H103.822C103.822 169.176 107.631 165.367 112.321 165.367Z" fill="#22C55E" fill-opacity="0.26"/>
<path d="M135.975 156.054C140.179 156.054 143.588 152.645 143.588 148.441C143.588 144.236 140.179 140.828 135.975 140.828C131.771 140.828 128.362 144.236 128.362 148.441C128.362 152.645 131.771 156.054 135.975 156.054Z" fill="white"/>
<path d="M212.469 48.2188H59.4795V148.145H212.469V48.2188Z" fill="#22C55E" fill-opacity="0.26"/>
<path d="M127.731 165.367H115.425V165.589H127.731V165.367Z" fill="#343E56"/>
<path d="M156.001 165.367H143.695V165.589H156.001V165.367Z" fill="#343E56"/>
<mask id="mask0_4579_45084" style="mask-type:luminance" maskUnits="userSpaceOnUse" x="64" y="55" width="144" height="85">
<path d="M207.234 55.4453H64.7129V139.865H207.234V55.4453Z" fill="white"/>
</mask>
<g mask="url(#mask0_4579_45084)">
<path d="M207.234 55.4453H64.7129V139.865H207.234V55.4453Z" fill="white"/>
<g opacity="0.2">
<path d="M219.566 144.521C220.27 138.836 213.574 133.231 205.714 132.927C205.694 129.148 199.382 126.202 194.63 127.755C194.861 123.368 188.903 119.372 182.89 119.88C185.357 99.6548 146.414 98.356 134.208 97.514C129.821 97.2116 125.505 96.3643 121.09 96.4426C113.918 96.5681 107.212 99.3738 101.797 104.051C99.0163 106.453 97.5051 109.887 99.1364 112.792C92.9115 111.106 85.5133 111.935 80.2815 114.907C75.0498 117.878 72.1647 122.889 72.9305 127.675C69.802 126.149 65.1859 126.515 62.5839 128.494C59.982 130.472 59.6989 133.834 61.9479 136.028C59.2742 135.36 56.0716 136.016 54.2752 137.601C52.4787 139.187 52.2106 141.592 53.6316 143.365L57.2557 166.978L224.885 162.839L219.566 144.522V144.521Z" fill="#22C55E" fill-opacity="0.26"/>
</g>
<g opacity="0.5">
<path d="M201.055 160.163C201.166 154.05 198.693 147.932 194.364 143.614C190.036 139.296 183.911 136.837 177.799 136.962C175.82 130.86 168.686 126.957 162.479 128.582C161.196 123.323 156.466 119.46 151.342 117.714C146.219 115.969 140.687 115.983 135.275 116.016C129.314 116.052 123.235 116.107 117.581 117.994C111.925 119.88 106.661 123.941 104.895 129.635C101.312 128.173 96.91 128.99 94.0903 131.641C91.2707 134.293 90.1831 138.635 91.4219 142.301C86.3328 140.527 80.3374 141.665 76.2522 145.18C72.167 148.694 70.1464 154.453 71.1395 159.749L201.056 160.163H201.055Z" fill="#22C55E" fill-opacity="0.26"/>
</g>
<path opacity="0.3" d="M122.4 97.5639L112.764 152.412H160.657L149.458 97.5639L135.159 92.1016L122.4 97.5639Z" fill="#FFC861"/>
<path d="M128.162 95.19L124.367 118.714L128.573 113.429L129.624 128.93L134.353 113.782L139.61 133.863L140.135 110.612L148.018 121.532L142.763 90.8828L128.162 95.19Z" fill="#FFA121"/>
<path opacity="0.4" d="M130.293 94.7322L127.672 109.745L130.576 106.372L131.302 116.265L134.569 106.597L138.2 119.413L138.562 104.574L144.007 111.544L140.378 91.9844L130.293 94.7322Z" fill="white"/>
<path opacity="0.5" d="M90.2926 105.08C88.8962 104.791 87.5706 104.084 86.6965 103.56C86.3651 103.361 86.0186 103.087 86.0347 102.617C86.0476 102.24 86.2932 101.854 86.5452 101.523C88.198 99.3575 90.8417 97.7949 93.0157 97.93C95.3088 98.0727 96.7631 100.387 95.0396 103.179C93.8137 105.165 91.999 105.434 90.2915 105.079L90.2926 105.08Z" fill="#22C55E" fill-opacity="0.26"/>
<path opacity="0.5" d="M175.467 108.66C176.921 109.409 178.655 109.74 180.065 109.636C180.699 109.589 181.393 109.427 181.758 108.907C182.009 108.55 182.055 108.088 182.045 107.652C181.987 105.334 180.462 103.125 178.493 101.973C176.886 101.032 174.568 100.996 173.297 102.523C172.527 103.449 172.312 104.803 172.756 105.922C173.231 107.119 174.252 108.035 175.467 108.66Z" fill="#22C55E" fill-opacity="0.26"/>
<path opacity="0.5" d="M107.052 115.08C108.109 114.642 108.61 113.431 108.173 112.375C107.735 111.319 106.524 110.817 105.468 111.255C104.412 111.692 103.91 112.903 104.348 113.959C104.785 115.015 105.996 115.517 107.052 115.08Z" fill="#22C55E" fill-opacity="0.26"/>
<path opacity="0.5" d="M166.201 123.663C167.344 123.663 168.271 122.737 168.271 121.593C168.271 120.45 167.344 119.523 166.201 119.523C165.058 119.523 164.131 120.45 164.131 121.593C164.131 122.737 165.058 123.663 166.201 123.663Z" fill="#22C55E" fill-opacity="0.26"/>
<path opacity="0.5" d="M183.791 129.722C184.525 129.722 185.121 129.127 185.121 128.392C185.121 127.658 184.525 127.062 183.791 127.062C183.056 127.062 182.461 127.658 182.461 128.392C182.461 129.127 183.056 129.722 183.791 129.722Z" fill="#22C55E" fill-opacity="0.26"/>
<path opacity="0.5" d="M92.4383 124.254C93.1728 124.254 93.7682 123.658 93.7682 122.924C93.7682 122.189 93.1728 121.594 92.4383 121.594C91.7038 121.594 91.1084 122.189 91.1084 122.924C91.1084 123.658 91.7038 124.254 92.4383 124.254Z" fill="#22C55E" fill-opacity="0.26"/>
</g>
<path d="M169.024 71.1038C168.33 72.8252 166.824 74.0886 165.008 74.4747L147.664 78.1577L147.485 67.5859L169.023 71.1038H169.024Z" fill="#22C55E" fill-opacity="0.26"/>
<path d="M169.024 71.1003H150.095V44.1094C157.878 66.1496 169.024 61.4906 169.024 71.1003Z" fill="#20B757"/>
<path d="M102.924 71.1038C103.618 72.8252 105.124 74.0886 106.939 74.4747L124.283 78.1577L124.462 67.5859L102.925 71.1038H102.924Z" fill="#22C55E" fill-opacity="0.26"/>
<path d="M102.924 71.1003H121.853V44.1094C114.069 66.1496 102.924 61.4906 102.924 71.1003Z" fill="#20B757"/>
<path d="M148.721 83.5294C155.213 64.9524 153.562 44.4083 143.82 27.3113C143.641 26.9981 143.46 26.686 143.276 26.375H135.932H128.582C128.399 26.686 128.218 26.9981 128.039 27.3113C118.296 44.4083 116.645 64.9524 123.137 83.5294L125.026 88.9328L122.4 97.5719H149.458L146.832 88.9328L148.721 83.5294Z" fill="#FFC861"/>
<path d="M128.583 26.3708H135.927H143.276L135.93 14.3672L128.583 26.3708Z" fill="#343E56"/>
<path d="M125.027 88.9404L146.826 88.9297L149.458 97.5699H122.4L125.027 88.9404Z" fill="#20B757"/>
<path d="M135.929 103.239C135.017 103.239 134.277 102.5 134.277 101.587V73.2923C134.277 72.3807 135.016 71.6406 135.929 71.6406C136.841 71.6406 137.581 72.3796 137.581 73.2923V101.587C137.581 102.499 136.842 103.239 135.929 103.239Z" fill="#343E56"/>
<path d="M141.299 48.8303C144.264 45.8649 144.264 41.057 141.299 38.0916C138.333 35.1262 133.525 35.1262 130.56 38.0916C127.594 41.057 127.594 45.8649 130.56 48.8303C133.525 51.7957 138.333 51.7957 141.299 48.8303Z" fill="white"/>
<path d="M139.732 47.2627C141.831 45.1631 141.831 41.7588 139.732 39.6592C137.632 37.5595 134.228 37.5595 132.128 39.6592C130.028 41.7588 130.028 45.1631 132.128 47.2627C134.228 49.3624 137.632 49.3624 139.732 47.2627Z" fill="#20B757"/>
<path d="M135.047 41.9154C135.172 41.3856 134.844 40.8548 134.314 40.7297C133.785 40.6047 133.254 40.9328 133.129 41.4626C133.004 41.9924 133.332 42.5232 133.862 42.6483C134.391 42.7733 134.922 42.4452 135.047 41.9154Z" fill="white"/>
<path d="M135.93 63.779C135.885 63.779 135.841 63.779 135.797 63.7769L135.812 63.3339L135.93 63.3361C136.17 63.3361 136.41 63.3125 136.643 63.2663L136.729 63.7007C136.467 63.7522 136.198 63.779 135.929 63.779H135.93ZM134.871 63.6406C134.57 63.5602 134.277 63.4444 134 63.2964L134.209 62.906C134.455 63.0379 134.716 63.1409 134.985 63.2127L134.87 63.6417L134.871 63.6406ZM137.62 63.4144L137.437 63.01C137.69 62.8953 137.93 62.7505 138.152 62.581L138.422 62.9328C138.175 63.1237 137.904 63.2856 137.621 63.4144H137.62ZM133.232 62.7644C132.997 62.5585 132.786 62.3257 132.604 62.0716L132.964 61.8131C133.127 62.0394 133.316 62.2475 133.525 62.4309L133.232 62.7644ZM139.094 62.2828L138.75 62.0008C138.927 61.7863 139.08 61.5503 139.203 61.3004L139.601 61.4967C139.463 61.7777 139.292 62.0415 139.094 62.2828ZM132.149 61.2543C132.029 60.9658 131.943 60.6633 131.893 60.3545L132.33 60.2826C132.375 60.5572 132.453 60.8274 132.56 61.0838L132.15 61.2543H132.149ZM139.917 60.6151L139.485 60.5153C139.548 60.2451 139.58 59.9662 139.58 59.6863H140.022C140.022 59.9995 139.987 60.3116 139.917 60.6151ZM132.289 59.4493L131.847 59.4203C131.867 59.1082 131.923 58.7982 132.013 58.5001L132.438 58.6288C132.357 58.8948 132.308 59.1704 132.29 59.4493H132.289ZM139.561 59.3248C139.533 59.0471 139.474 58.7725 139.385 58.5097L139.805 58.3671C139.906 58.662 139.972 58.9698 140.003 59.2809L139.561 59.3248ZM132.767 57.8641L132.383 57.6421C132.54 57.3718 132.726 57.1187 132.941 56.8913L133.265 57.1938C133.074 57.3975 132.906 57.6228 132.767 57.8641ZM139.027 57.7568C138.88 57.5209 138.705 57.301 138.508 57.1037L138.821 56.7894C139.042 57.0103 139.238 57.257 139.404 57.5209L139.027 57.7557V57.7568ZM133.901 56.6532L133.654 56.2853C133.913 56.1116 134.193 55.9668 134.485 55.8563L134.642 56.2714C134.382 56.3701 134.132 56.4988 133.901 56.6532ZM137.855 56.5856C137.618 56.4387 137.364 56.3186 137.101 56.2296L137.243 55.8091C137.539 55.9089 137.823 56.044 138.089 56.2092L137.855 56.5856ZM135.45 56.0687L135.392 55.6289C135.701 55.5882 136.021 55.5828 136.328 55.6129L136.285 56.0547C136.012 56.0279 135.727 56.0333 135.45 56.0687Z" fill="#343E56"/>
<path d="M223.913 153.039H256.372V147.837H223.913V153.039Z" fill="#22C55E" fill-opacity="0.26"/>
<g opacity="0.4">
<path d="M254.251 152.223C254.442 152.223 254.598 152.066 254.598 151.875V149.012C254.598 148.821 254.442 148.664 254.251 148.664C254.06 148.664 253.903 148.821 253.903 149.012V151.875C253.903 152.066 254.06 152.223 254.251 152.223Z" fill="#20B757"/>
<path d="M248.486 152.223C248.677 152.223 248.834 152.066 248.834 151.875V149.012C248.834 148.821 248.677 148.664 248.486 148.664C248.295 148.664 248.139 148.821 248.139 149.012V151.875C248.139 152.066 248.295 152.223 248.486 152.223Z" fill="#20B757"/>
<path d="M242.721 152.223C242.911 152.223 243.068 152.066 243.068 151.875V149.012C243.068 148.821 242.911 148.664 242.721 148.664C242.53 148.664 242.373 148.821 242.373 149.012V151.875C242.373 152.066 242.53 152.223 242.721 152.223Z" fill="#20B757"/>
<path d="M236.955 152.223C237.146 152.223 237.302 152.066 237.302 151.875V149.012C237.302 148.821 237.146 148.664 236.955 148.664C236.764 148.664 236.607 148.821 236.607 149.012V151.875C236.607 152.066 236.764 152.223 236.955 152.223Z" fill="#20B757"/>
<path d="M231.19 152.223C231.381 152.223 231.538 152.066 231.538 151.875V149.012C231.538 148.821 231.381 148.664 231.19 148.664C230.999 148.664 230.843 148.821 230.843 149.012V151.875C230.843 152.066 230.999 152.223 231.19 152.223Z" fill="#20B757"/>
<path d="M226.035 152.223C226.226 152.223 226.382 152.066 226.382 151.875V149.012C226.382 148.821 226.226 148.664 226.035 148.664C225.844 148.664 225.688 148.821 225.688 149.012V151.875C225.688 152.066 225.844 152.223 226.035 152.223Z" fill="#20B757"/>
</g>
<path d="M223.913 158.25H256.372V153.048H223.913V158.25Z" fill="#22C55E" fill-opacity="0.26"/>
<g opacity="0.4">
<path d="M254.251 157.434C254.442 157.434 254.598 157.277 254.598 157.086V154.222C254.598 154.032 254.442 153.875 254.251 153.875C254.06 153.875 253.903 154.032 253.903 154.222V157.086C253.903 157.277 254.06 157.434 254.251 157.434Z" fill="#20B757"/>
<path d="M248.486 157.434C248.677 157.434 248.834 157.277 248.834 157.086V154.222C248.834 154.032 248.677 153.875 248.486 153.875C248.295 153.875 248.139 154.032 248.139 154.222V157.086C248.139 157.277 248.295 157.434 248.486 157.434Z" fill="#20B757"/>
<path d="M242.721 157.434C242.911 157.434 243.068 157.277 243.068 157.086V154.222C243.068 154.032 242.911 153.875 242.721 153.875C242.53 153.875 242.373 154.032 242.373 154.222V157.086C242.373 157.277 242.53 157.434 242.721 157.434Z" fill="#20B757"/>
<path d="M236.955 157.434C237.146 157.434 237.302 157.277 237.302 157.086V154.222C237.302 154.032 237.146 153.875 236.955 153.875C236.764 153.875 236.607 154.032 236.607 154.222V157.086C236.607 157.277 236.764 157.434 236.955 157.434Z" fill="#20B757"/>
<path d="M231.19 157.434C231.381 157.434 231.538 157.277 231.538 157.086V154.222C231.538 154.032 231.381 153.875 231.19 153.875C230.999 153.875 230.843 154.032 230.843 154.222V157.086C230.843 157.277 230.999 157.434 231.19 157.434Z" fill="#20B757"/>
<path d="M226.035 157.434C226.226 157.434 226.382 157.277 226.382 157.086V154.222C226.382 154.032 226.226 153.875 226.035 153.875C225.844 153.875 225.688 154.032 225.688 154.222V157.086C225.688 157.277 225.844 157.434 226.035 157.434Z" fill="#20B757"/>
</g>
<path opacity="0.15" d="M223.913 154.906H256.372V153.049H223.913V154.906Z" fill="#343E56"/>
<path d="M221.105 163.453H253.563V158.251H221.105V163.453Z" fill="#22C55E" fill-opacity="0.26"/>
<g opacity="0.4">
<path d="M251.442 162.637C251.633 162.637 251.79 162.48 251.79 162.289V159.426C251.79 159.235 251.633 159.078 251.442 159.078C251.251 159.078 251.095 159.235 251.095 159.426V162.289C251.095 162.48 251.251 162.637 251.442 162.637Z" fill="#20B757"/>
<path d="M245.678 162.637C245.868 162.637 246.025 162.48 246.025 162.289V159.426C246.025 159.235 245.868 159.078 245.678 159.078C245.487 159.078 245.33 159.235 245.33 159.426V162.289C245.33 162.48 245.487 162.637 245.678 162.637Z" fill="#20B757"/>
<path d="M239.564 162.293C239.564 162.485 239.719 162.641 239.911 162.641C240.103 162.641 240.259 162.485 240.259 162.293V159.431C240.259 159.239 240.103 159.083 239.911 159.083C239.719 159.083 239.564 159.239 239.564 159.431V162.293Z" fill="#20B757"/>
<path d="M234.147 162.637C234.338 162.637 234.495 162.48 234.495 162.289V159.426C234.495 159.235 234.338 159.078 234.147 159.078C233.956 159.078 233.8 159.235 233.8 159.426V162.289C233.8 162.48 233.956 162.637 234.147 162.637Z" fill="#20B757"/>
<path d="M228.382 162.637C228.573 162.637 228.729 162.48 228.729 162.289V159.426C228.729 159.235 228.573 159.078 228.382 159.078C228.191 159.078 228.034 159.235 228.034 159.426V162.289C228.034 162.48 228.191 162.637 228.382 162.637Z" fill="#20B757"/>
<path d="M223.227 162.637C223.418 162.637 223.575 162.48 223.575 162.289V159.426C223.575 159.235 223.418 159.078 223.227 159.078C223.036 159.078 222.88 159.235 222.88 159.426V162.289C222.88 162.48 223.036 162.637 223.227 162.637Z" fill="#20B757"/>
</g>
<path d="M221.105 168.664H253.563V163.462H221.105V168.664Z" fill="#22C55E" fill-opacity="0.26"/>
<g opacity="0.4">
<path d="M251.442 167.84C251.633 167.84 251.79 167.683 251.79 167.492V164.629C251.79 164.438 251.633 164.281 251.442 164.281C251.251 164.281 251.095 164.438 251.095 164.629V167.492C251.095 167.683 251.251 167.84 251.442 167.84Z" fill="#20B757"/>
<path d="M245.678 167.84C245.868 167.84 246.025 167.683 246.025 167.492V164.629C246.025 164.438 245.868 164.281 245.678 164.281C245.487 164.281 245.33 164.438 245.33 164.629V167.492C245.33 167.683 245.487 167.84 245.678 167.84Z" fill="#20B757"/>
<path d="M239.564 167.496C239.564 167.688 239.719 167.844 239.911 167.844C240.103 167.844 240.259 167.688 240.259 167.496V164.634C240.259 164.442 240.103 164.286 239.911 164.286C239.719 164.286 239.564 164.442 239.564 164.634V167.496Z" fill="#20B757"/>
<path d="M234.147 167.84C234.338 167.84 234.495 167.683 234.495 167.492V164.629C234.495 164.438 234.338 164.281 234.147 164.281C233.956 164.281 233.8 164.438 233.8 164.629V167.492C233.8 167.683 233.956 167.84 234.147 167.84Z" fill="#20B757"/>
<path d="M228.382 167.84C228.573 167.84 228.729 167.683 228.729 167.492V164.629C228.729 164.438 228.573 164.281 228.382 164.281C228.191 164.281 228.034 164.438 228.034 164.629V167.492C228.034 167.683 228.191 167.84 228.382 167.84Z" fill="#20B757"/>
<path d="M223.227 167.84C223.418 167.84 223.575 167.683 223.575 167.492V164.629C223.575 164.438 223.418 164.281 223.227 164.281C223.036 164.281 222.88 164.438 222.88 164.629V167.492C222.88 167.683 223.036 167.84 223.227 167.84Z" fill="#20B757"/>
</g>
<path opacity="0.15" d="M221.105 165.602H253.563V163.462H221.105V165.602Z" fill="#343E56"/>
<path d="M223.618 173.859H256.076V168.658H223.618V173.859Z" fill="#22C55E" fill-opacity="0.26"/>
<g opacity="0.4">
<path d="M253.955 173.043C254.146 173.043 254.302 172.886 254.302 172.695V169.832C254.302 169.641 254.146 169.484 253.955 169.484C253.764 169.484 253.607 169.641 253.607 169.832V172.695C253.607 172.886 253.764 173.043 253.955 173.043Z" fill="#20B757"/>
<path d="M248.19 173.043C248.381 173.043 248.538 172.886 248.538 172.695V169.832C248.538 169.641 248.381 169.484 248.19 169.484C247.999 169.484 247.843 169.641 247.843 169.832V172.695C247.843 172.886 247.999 173.043 248.19 173.043Z" fill="#20B757"/>
<path d="M242.426 173.043C242.617 173.043 242.773 172.886 242.773 172.695V169.832C242.773 169.641 242.617 169.484 242.426 169.484C242.235 169.484 242.078 169.641 242.078 169.832V172.695C242.078 172.886 242.235 173.043 242.426 173.043Z" fill="#20B757"/>
<path d="M236.66 173.043C236.851 173.043 237.007 172.886 237.007 172.695V169.832C237.007 169.641 236.851 169.484 236.66 169.484C236.469 169.484 236.312 169.641 236.312 169.832V172.695C236.312 172.886 236.469 173.043 236.66 173.043Z" fill="#20B757"/>
<path d="M230.894 173.043C231.085 173.043 231.242 172.886 231.242 172.695V169.832C231.242 169.641 231.085 169.484 230.894 169.484C230.703 169.484 230.547 169.641 230.547 169.832V172.695C230.547 172.886 230.703 173.043 230.894 173.043Z" fill="#20B757"/>
<path d="M225.74 173.043C225.931 173.043 226.088 172.886 226.088 172.695V169.832C226.088 169.641 225.931 169.484 225.74 169.484C225.549 169.484 225.393 169.641 225.393 169.832V172.695C225.393 172.886 225.549 173.043 225.74 173.043Z" fill="#20B757"/>
</g>
<path d="M194.953 86.633C194.953 86.633 195.83 82.3183 195.055 82.4566C194.278 82.595 194.196 83.7318 194.196 83.7318C194.196 83.7318 193.863 79.6852 193.032 79.9072C192.201 80.1293 192.782 83.3436 192.782 83.3436C192.061 83.0669 190.814 83.2331 190.26 84.5631C189.53 84.8076 189.296 85.598 189.511 86.337L190.666 89.1459L192.588 90.2452L194.953 86.633Z" fill="#FAD7C3"/>
<path d="M208.626 88.3327C206.003 89.3302 204.229 90.7717 200.127 94.2091L194.953 86.6328L190.666 89.1457L196.344 99.6285C197.439 101.65 199.998 102.354 201.972 101.174L208.625 97.2014V88.3317L208.626 88.3327Z" fill="#FFA121"/>
<path d="M191.225 86.7707C190.999 86.7707 190.637 86.5884 190.086 86.2033L190.214 86.021C191.125 86.6581 191.267 86.5401 191.267 86.5401C191.356 86.4532 191.092 85.844 190.723 85.2863L190.909 85.1641C191.154 85.5362 191.698 86.4307 191.422 86.6988C191.373 86.7471 191.309 86.7707 191.226 86.7707H191.225Z" fill="#D28572"/>
<path d="M191.996 86.293C191.53 86.293 190.867 85.4146 190.724 85.2183L190.903 85.0886C191.257 85.5766 191.853 86.1836 192.046 86.0581C192.062 86.0474 192.085 86.0281 192.095 85.9766C192.153 85.7106 191.826 85.0725 191.606 84.7325L191.789 84.6059C192.061 84.9706 192.587 85.5476 192.834 85.5476C192.864 85.5455 192.885 85.538 192.903 85.5122C193.112 85.2259 192.688 84.5191 192.524 84.2949L192.702 84.1641C192.777 84.266 193.424 85.1765 193.081 85.6441C193.021 85.7267 192.936 85.7696 192.835 85.7707H192.833C192.648 85.7707 192.418 85.6109 192.207 85.4157C192.292 85.6366 192.345 85.8597 192.31 86.0238C192.288 86.1203 192.239 86.1965 192.164 86.2447C192.111 86.2791 192.054 86.2941 191.992 86.2941L191.996 86.293Z" fill="#D28572"/>
<path d="M199.904 173.625L207.591 170.373L209.513 173.477L210.443 166.914C208.257 167.913 205.575 168.692 203.31 169.053L199.904 173.625Z" fill="#343E56"/>
<path d="M204.782 137.856C204.782 138.299 205.078 166.681 205.078 166.681L203.31 169.056C205.575 168.696 208.257 167.916 210.443 166.918L214.687 136.969L204.783 137.856H204.782Z" fill="#FAD7C3"/>
<path d="M231.08 162.508C229.85 164.745 227.202 167.545 224.99 168.599L224.019 173.535C227.068 173.369 227.968 170.563 229.548 167.185L232.588 169.208C232.101 166.946 231.602 164.712 231.081 162.508H231.08Z" fill="#343E56"/>
<path d="M231.08 162.507C228.667 152.308 225.735 142.767 220.859 134.289L213.455 138.786C213.64 139.189 225.725 164.871 225.725 164.871L224.991 168.598C227.202 167.545 229.851 164.743 231.081 162.507H231.08Z" fill="#FAD7C3"/>
<path d="M228.397 140.111H202.344C202.167 129.885 203.244 119.552 205.856 111.557C206.22 110.443 206.61 109.375 207.036 108.359L221.71 110.302C221.821 110.594 221.928 110.892 222.03 111.189C225.196 119.961 227.263 129.65 228.398 140.111H228.397Z" fill="#20B757"/>
<path opacity="0.6" d="M222.03 111.189C215.946 111.721 210.455 111.907 205.856 111.557C206.22 110.443 206.61 109.375 207.036 108.359L221.71 110.302C221.821 110.594 221.928 110.892 222.03 111.189Z" fill="#343E56"/>
<path d="M222.645 101.443C222.09 106.17 221.634 110.281 221.704 110.427C221.359 110.326 211.202 109.557 206.898 109.236C205.826 109.155 204.996 108.264 204.99 107.188L204.919 93.4203C204.791 91.212 206.17 89.2032 208.268 88.4974C209.82 87.9741 211.465 87.6416 213.208 87.5L220.024 88.4041C221.492 88.5993 222.857 89.127 224.033 89.9121C223.682 92.7543 223.129 97.3307 222.645 101.442V101.443Z" fill="#FFA121"/>
<path d="M221.715 110.549H221.668L221.629 110.516L221.71 110.431V110.32L221.713 110.428L221.787 110.349L221.791 110.354L221.713 110.433L221.715 110.549Z" fill="#102048"/>
<path d="M235.229 114.303L235.07 126.394L218.623 121.045L218.782 108.953L235.229 114.303Z" fill="#EBEBFF"/>
<path d="M225.791 113.34L225.708 121.066L221.694 119.76L221.801 111.898L225.791 113.34Z" fill="#C5C5FF"/>
<path d="M228.038 95.7807C227.502 93.3236 226.038 91.2483 224.033 89.9141C223.683 92.7562 223.129 97.3327 222.646 101.444L226.181 117.874L231.368 118.679L228.038 95.7818V95.7807Z" fill="#FFA121"/>
<path d="M231.368 118.68L226.181 117.875L227.475 123.89C228.269 124.422 229.405 124.812 230.735 125.118C231.515 125.3 232.234 124.63 232.118 123.836L231.368 118.68Z" fill="#FAD7C3"/>
<path d="M226.809 120.188C226.809 120.188 225.838 124.23 226.18 124.474C227.215 125.213 228.25 121.481 228.25 121.481L226.809 120.188Z" fill="#FAD7C3"/>
<path d="M216.952 82.8438V87.9307C216.952 89.532 215.653 90.8308 214.051 90.8308C212.45 90.8308 211.151 89.532 211.151 87.9307V82.8438H216.952Z" fill="#FAD7C3"/>
<path d="M215.869 84.2325C215.155 86.2017 212.986 87.7804 211.151 87.9306V84.1875L215.869 84.2315V84.2325Z" fill="#343E56"/>
<path d="M218.045 76.4442C219.874 76.4442 221.357 74.9614 221.357 73.1322C221.357 71.3031 219.874 69.8203 218.045 69.8203C216.216 69.8203 214.733 71.3031 214.733 73.1322C214.733 74.9614 216.216 76.4442 218.045 76.4442Z" fill="#343E56"/>
<path d="M219.085 78.0238C218.951 80.6761 216.24 82.6806 213.209 82.6806C210.178 82.6806 207.472 80.542 207.472 77.8854C207.472 75.2288 210.732 72.4531 213.763 72.4531C216.794 72.4531 219.251 74.7258 219.085 78.0238Z" fill="#343E56"/>
<path d="M217.408 80.9689C217.408 81.0483 217.408 81.1287 217.4 81.2081C217.369 81.8516 217.209 82.4587 216.952 83.0131C216.943 83.0443 216.929 83.0711 216.916 83.0979C216.592 83.7671 216.135 84.357 215.591 84.8493C214.558 85.7899 213.218 86.3487 211.985 86.3487C211.688 86.3487 211.408 86.3176 211.151 86.2511C210.163 86.0162 209.444 85.3373 208.987 84.3752C208.694 83.7725 208.508 83.0539 208.41 82.2602C208.362 81.8473 208.335 81.4172 208.335 80.97C208.335 80.7791 208.344 80.5936 208.357 80.4069C208.401 79.9061 208.495 79.4224 208.642 78.9698C209.298 76.8944 210.943 75.4219 212.873 75.4219C215.121 75.4219 216.988 77.4221 217.343 80.0476C217.374 80.2343 217.391 80.4198 217.401 80.615C217.405 80.7298 217.41 80.8499 217.41 80.97L217.408 80.9689Z" fill="#FAD7C3"/>
<path d="M217.062 81.2119C215.732 80.7132 213.454 79.4143 213.099 77.8023C210.399 77.635 209.885 77.9085 208.276 79.2717L208.665 76.7491L212.795 74.1719L216.647 75.3356L218.311 78.9939L217.063 81.2108L217.062 81.2119Z" fill="#343E56"/>
<path d="M218.308 82.0177C218.013 82.8263 217.217 83.279 216.532 83.0291C215.847 82.7792 215.53 81.9201 215.825 81.1114C216.12 80.3027 216.916 79.8501 217.601 80.1C218.287 80.3499 218.603 81.209 218.308 82.0177Z" fill="#FAD7C3"/>
<path d="M216.918 82.2961C216.844 82.0515 216.829 81.7898 216.883 81.5271C216.916 81.3973 216.97 81.2675 217.056 81.1581C217.144 81.0509 217.26 80.9651 217.39 80.9297L217.43 81.0058C217.251 81.1678 217.146 81.3533 217.097 81.5775C217.038 81.7984 217.035 82.0387 217.004 82.2864L216.918 82.295V82.2961Z" fill="#343E56"/>
<path d="M209.211 81.9473C209.367 81.9473 209.494 81.786 209.494 81.5869C209.494 81.3879 209.367 81.2266 209.211 81.2266C209.055 81.2266 208.928 81.3879 208.928 81.5869C208.928 81.786 209.055 81.9473 209.211 81.9473Z" fill="#343E56"/>
<path d="M212.087 81.2429C212.087 81.4767 211.938 81.6655 211.754 81.6655C211.571 81.6655 211.422 81.4767 211.422 81.2429C211.422 81.0091 211.571 80.8203 211.754 80.8203C211.938 80.8203 212.087 81.0091 212.087 81.2429Z" fill="#343E56"/>
<path d="M210.245 81.8938C210.265 82.0569 210.244 82.2252 210.194 82.384C210.153 82.5449 210.047 82.6918 210.019 82.8087C210.005 82.8698 210.005 82.8966 210.03 82.931C210.059 82.9664 210.119 83.0007 210.178 83.0253C210.303 83.0747 210.457 83.0822 210.613 83.0961L210.621 83.1819C210.466 83.2259 210.301 83.2495 210.123 83.2098C210.032 83.1894 209.949 83.1465 209.871 83.0682C209.788 82.9835 209.773 82.8355 209.807 82.7486C209.874 82.5652 209.96 82.4548 210.02 82.3175C210.082 82.1834 210.127 82.0408 210.159 81.8906L210.246 81.8938H210.245Z" fill="#D28572"/>
<path d="M210.423 84.2212C210.781 84.2834 211.144 84.292 211.442 84.1322C211.748 83.9874 211.955 83.6946 212.129 83.375L212.21 83.404C212.143 83.7761 211.908 84.1461 211.539 84.3295C211.169 84.5097 210.733 84.4711 210.396 84.3038L210.422 84.2212H210.423Z" fill="#343E56"/>
<path d="M209.547 80.4115C209.609 80.5777 209.317 80.7343 208.991 80.8447C208.665 80.9552 208.423 80.9788 208.365 80.8115C208.308 80.6431 208.541 80.4576 208.853 80.3074C209.18 80.1498 209.395 80.0071 209.547 80.4115Z" fill="#343E56"/>
<path d="M210.945 80.1531C210.931 80.3343 211.4 80.4051 211.897 80.4201C212.393 80.4351 212.738 80.3901 212.743 80.2088C212.748 80.0276 212.348 79.9107 211.854 79.8528C211.336 79.7916 210.979 79.7123 210.944 80.1531H210.945Z" fill="#343E56"/>
<path opacity="0.2" d="M214.06 83.5618C214.733 83.5618 215.279 83.0163 215.279 82.3434C215.279 81.6705 214.733 81.125 214.06 81.125C213.387 81.125 212.842 81.6705 212.842 82.3434C212.842 83.0163 213.387 83.5618 214.06 83.5618Z" fill="#222E48"/>
<path opacity="0.2" d="M209.404 83.4547C209.404 83.8183 209.245 84.1465 208.987 84.3728C208.694 83.7701 208.508 83.0515 208.41 82.2578C208.978 82.364 209.403 82.8563 209.403 83.4547H209.404Z" fill="#222E48"/>
<path d="M205.05 94.991L204.979 101.273L205.201 101.276L205.272 94.9936L205.05 94.991Z" fill="#343E56"/>
<path d="M222.645 101.446L221.93 98.9062C221.34 101.145 221.455 102.866 222.369 103.762L222.645 101.446Z" fill="#343E56"/>
<path d="M214.016 92.9756C213.89 92.9756 213.761 92.9702 213.632 92.9595C212.356 92.8522 211.25 92.2044 210.746 91.2681L210.941 91.163C211.41 92.0339 212.448 92.6377 213.65 92.7385C215.133 92.8608 216.526 92.2291 217.482 91L217.656 91.1362C216.736 92.3192 215.425 92.9766 214.015 92.9766L214.016 92.9756Z" fill="#343E56"/>
<path d="M59.9987 147.844H27.54V153.045H59.9987V147.844Z" fill="#22C55E" fill-opacity="0.26"/>
<g opacity="0.4">
<path d="M29.6619 152.223C29.471 152.223 29.3145 152.066 29.3145 151.875V149.012C29.3145 148.821 29.471 148.664 29.6619 148.664C29.8529 148.664 30.0094 148.821 30.0094 149.012V151.875C30.0094 152.066 29.8529 152.223 29.6619 152.223Z" fill="#20B757"/>
<path d="M35.4266 152.223C35.2357 152.223 35.0791 152.066 35.0791 151.875V149.012C35.0791 148.821 35.2357 148.664 35.4266 148.664C35.6175 148.664 35.7741 148.821 35.7741 149.012V151.875C35.7741 152.066 35.6175 152.223 35.4266 152.223Z" fill="#20B757"/>
<path d="M41.5387 149.012C41.5387 148.82 41.3832 148.664 41.1912 148.664C40.9993 148.664 40.8438 148.82 40.8438 149.012V151.874C40.8438 152.066 40.9993 152.222 41.1912 152.222C41.3832 152.222 41.5387 152.066 41.5387 151.874V149.012Z" fill="#20B757"/>
<path d="M46.9559 152.223C46.765 152.223 46.6084 152.066 46.6084 151.875V149.012C46.6084 148.821 46.765 148.664 46.9559 148.664C47.1468 148.664 47.3034 148.821 47.3034 149.012V151.875C47.3034 152.066 47.1468 152.223 46.9559 152.223Z" fill="#20B757"/>
<path d="M52.7225 152.223C52.5316 152.223 52.375 152.066 52.375 151.875V149.012C52.375 148.821 52.5316 148.664 52.7225 148.664C52.9134 148.664 53.07 148.821 53.07 149.012V151.875C53.07 152.066 52.9134 152.223 52.7225 152.223Z" fill="#20B757"/>
<path d="M57.8768 152.223C57.6859 152.223 57.5293 152.066 57.5293 151.875V149.012C57.5293 148.821 57.6859 148.664 57.8768 148.664C58.0677 148.664 58.2243 148.821 58.2243 149.012V151.875C58.2243 152.066 58.0677 152.223 57.8768 152.223Z" fill="#20B757"/>
</g>
<path d="M59.9987 153.047H27.54V158.249H59.9987V153.047Z" fill="#22C55E" fill-opacity="0.26"/>
<g opacity="0.4">
<path d="M29.6619 157.426C29.471 157.426 29.3145 157.269 29.3145 157.078V154.215C29.3145 154.024 29.471 153.867 29.6619 153.867C29.8529 153.867 30.0094 154.024 30.0094 154.215V157.078C30.0094 157.269 29.8529 157.426 29.6619 157.426Z" fill="#20B757"/>
<path d="M35.4266 157.426C35.2357 157.426 35.0791 157.269 35.0791 157.078V154.215C35.0791 154.024 35.2357 153.867 35.4266 153.867C35.6175 153.867 35.7741 154.024 35.7741 154.215V157.078C35.7741 157.269 35.6175 157.426 35.4266 157.426Z" fill="#20B757"/>
<path d="M41.5387 154.215C41.5387 154.023 41.3832 153.867 41.1912 153.867C40.9993 153.867 40.8438 154.023 40.8438 154.215V157.077C40.8438 157.269 40.9993 157.425 41.1912 157.425C41.3832 157.425 41.5387 157.269 41.5387 157.077V154.215Z" fill="#20B757"/>
<path d="M46.9559 157.426C46.765 157.426 46.6084 157.269 46.6084 157.078V154.215C46.6084 154.024 46.765 153.867 46.9559 153.867C47.1468 153.867 47.3034 154.024 47.3034 154.215V157.078C47.3034 157.269 47.1468 157.426 46.9559 157.426Z" fill="#20B757"/>
<path d="M52.7225 157.426C52.5316 157.426 52.375 157.269 52.375 157.078V154.215C52.375 154.024 52.5316 153.867 52.7225 153.867C52.9134 153.867 53.07 154.024 53.07 154.215V157.078C53.07 157.269 52.9134 157.426 52.7225 157.426Z" fill="#20B757"/>
<path d="M57.8768 157.426C57.6859 157.426 57.5293 157.269 57.5293 157.078V154.215C57.5293 154.024 57.6859 153.867 57.8768 153.867C58.0677 153.867 58.2243 154.024 58.2243 154.215V157.078C58.2243 157.269 58.0677 157.426 57.8768 157.426Z" fill="#20B757"/>
</g>
<path opacity="0.15" d="M59.9987 153.047H27.54V154.904H59.9987V153.047Z" fill="#343E56"/>
<path d="M62.8063 158.258H30.3477V163.46H62.8063V158.258Z" fill="#22C55E" fill-opacity="0.26"/>
<g opacity="0.4">
<path d="M32.4696 162.637C32.2787 162.637 32.1221 162.48 32.1221 162.289V159.426C32.1221 159.235 32.2787 159.078 32.4696 159.078C32.6605 159.078 32.8171 159.235 32.8171 159.426V162.289C32.8171 162.48 32.6605 162.637 32.4696 162.637Z" fill="#20B757"/>
<path d="M38.2352 162.637C38.0443 162.637 37.8877 162.48 37.8877 162.289V159.426C37.8877 159.235 38.0443 159.078 38.2352 159.078C38.4261 159.078 38.5827 159.235 38.5827 159.426V162.289C38.5827 162.48 38.4261 162.637 38.2352 162.637Z" fill="#20B757"/>
<path d="M43.9998 162.637C43.8089 162.637 43.6523 162.48 43.6523 162.289V159.426C43.6523 159.235 43.8089 159.078 43.9998 159.078C44.1907 159.078 44.3473 159.235 44.3473 159.426V162.289C44.3473 162.48 44.1907 162.637 43.9998 162.637Z" fill="#20B757"/>
<path d="M49.7655 162.637C49.5746 162.637 49.418 162.48 49.418 162.289V159.426C49.418 159.235 49.5746 159.078 49.7655 159.078C49.9564 159.078 50.113 159.235 50.113 159.426V162.289C50.113 162.48 49.9564 162.637 49.7655 162.637Z" fill="#20B757"/>
<path d="M55.5301 162.637C55.3392 162.637 55.1826 162.48 55.1826 162.289V159.426C55.1826 159.235 55.3392 159.078 55.5301 159.078C55.721 159.078 55.8776 159.235 55.8776 159.426V162.289C55.8776 162.48 55.721 162.637 55.5301 162.637Z" fill="#20B757"/>
<path d="M60.6854 162.637C60.4945 162.637 60.3379 162.48 60.3379 162.289V159.426C60.3379 159.235 60.4945 159.078 60.6854 159.078C60.8763 159.078 61.0329 159.235 61.0329 159.426V162.289C61.0329 162.48 60.8763 162.637 60.6854 162.637Z" fill="#20B757"/>
</g>
<path d="M62.8063 163.461H30.3477V168.663H62.8063V163.461Z" fill="#22C55E" fill-opacity="0.26"/>
<g opacity="0.4">
<path d="M32.4696 167.84C32.2787 167.84 32.1221 167.683 32.1221 167.492V164.629C32.1221 164.438 32.2787 164.281 32.4696 164.281C32.6605 164.281 32.8171 164.438 32.8171 164.629V167.492C32.8171 167.683 32.6605 167.84 32.4696 167.84Z" fill="#20B757"/>
<path d="M38.2352 167.84C38.0443 167.84 37.8877 167.683 37.8877 167.492V164.629C37.8877 164.438 38.0443 164.281 38.2352 164.281C38.4261 164.281 38.5827 164.438 38.5827 164.629V167.492C38.5827 167.683 38.4261 167.84 38.2352 167.84Z" fill="#20B757"/>
<path d="M43.9998 167.84C43.8089 167.84 43.6523 167.683 43.6523 167.492V164.629C43.6523 164.438 43.8089 164.281 43.9998 164.281C44.1907 164.281 44.3473 164.438 44.3473 164.629V167.492C44.3473 167.683 44.1907 167.84 43.9998 167.84Z" fill="#20B757"/>
<path d="M49.7655 167.84C49.5746 167.84 49.418 167.683 49.418 167.492V164.629C49.418 164.438 49.5746 164.281 49.7655 164.281C49.9564 164.281 50.113 164.438 50.113 164.629V167.492C50.113 167.683 49.9564 167.84 49.7655 167.84Z" fill="#20B757"/>
<path d="M55.5301 167.84C55.3392 167.84 55.1826 167.683 55.1826 167.492V164.629C55.1826 164.438 55.3392 164.281 55.5301 164.281C55.721 164.281 55.8776 164.438 55.8776 164.629V167.492C55.8776 167.683 55.721 167.84 55.5301 167.84Z" fill="#20B757"/>
<path d="M60.6854 167.84C60.4945 167.84 60.3379 167.683 60.3379 167.492V164.629C60.3379 164.438 60.4945 164.281 60.6854 164.281C60.8763 164.281 61.0329 164.438 61.0329 164.629V167.492C61.0329 167.683 60.8763 167.84 60.6854 167.84Z" fill="#20B757"/>
</g>
<path opacity="0.15" d="M62.8063 163.461H30.3477V165.601H62.8063V163.461Z" fill="#343E56"/>
<path d="M60.2936 168.664H27.835V173.866H60.2936V168.664Z" fill="#22C55E" fill-opacity="0.26"/>
<g opacity="0.4">
<path d="M29.9569 173.043C29.766 173.043 29.6094 172.886 29.6094 172.695V169.832C29.6094 169.641 29.766 169.484 29.9569 169.484C30.1478 169.484 30.3044 169.641 30.3044 169.832V172.695C30.3044 172.886 30.1478 173.043 29.9569 173.043Z" fill="#20B757"/>
<path d="M35.7225 173.043C35.5316 173.043 35.375 172.886 35.375 172.695V169.832C35.375 169.641 35.5316 169.484 35.7225 169.484C35.9134 169.484 36.07 169.641 36.07 169.832V172.695C36.07 172.886 35.9134 173.043 35.7225 173.043Z" fill="#20B757"/>
<path d="M41.4871 173.043C41.2962 173.043 41.1396 172.886 41.1396 172.695V169.832C41.1396 169.641 41.2962 169.484 41.4871 169.484C41.6781 169.484 41.8346 169.641 41.8346 169.832V172.695C41.8346 172.886 41.6781 173.043 41.4871 173.043Z" fill="#20B757"/>
<path d="M47.5993 169.832C47.5993 169.64 47.4437 169.484 47.2518 169.484C47.0599 169.484 46.9043 169.64 46.9043 169.832V172.694C46.9043 172.886 47.0599 173.042 47.2518 173.042C47.4437 173.042 47.5993 172.886 47.5993 172.694V169.832Z" fill="#20B757"/>
<path d="M53.0174 173.043C52.8265 173.043 52.6699 172.886 52.6699 172.695V169.832C52.6699 169.641 52.8265 169.484 53.0174 169.484C53.2083 169.484 53.3649 169.641 53.3649 169.832V172.695C53.3649 172.886 53.2083 173.043 53.0174 173.043Z" fill="#20B757"/>
<path d="M58.1727 173.043C57.9818 173.043 57.8252 172.886 57.8252 172.695V169.832C57.8252 169.641 57.9818 169.484 58.1727 169.484C58.3636 169.484 58.5202 169.641 58.5202 169.832V172.695C58.5202 172.886 58.3636 173.043 58.1727 173.043Z" fill="#20B757"/>
</g>
<path d="M27.9121 143.335L11.2578 171.195L15.7226 173.864L32.3769 146.004L27.9121 143.335Z" fill="#22C55E" fill-opacity="0.26"/>
<g opacity="0.4">
<path d="M16.1041 171.627C16.0065 171.791 15.792 171.845 15.6279 171.747L13.1708 170.278C13.0067 170.18 12.9531 169.966 13.0507 169.802C13.1483 169.638 13.3628 169.584 13.5269 169.682L15.984 171.151C16.1481 171.248 16.2017 171.463 16.1041 171.627Z" fill="#20B757"/>
<path d="M19.0621 166.682C18.9645 166.846 18.75 166.899 18.5859 166.802L16.1288 165.333C15.9647 165.235 15.9111 165.02 16.0087 164.856C16.1063 164.692 16.3208 164.639 16.4849 164.736L18.942 166.206C19.1061 166.303 19.1597 166.518 19.0621 166.682Z" fill="#20B757"/>
<path d="M22.0201 161.729C21.9225 161.893 21.708 161.946 21.5439 161.849L19.0868 160.379C18.9227 160.282 18.8691 160.067 18.9667 159.903C19.0643 159.739 19.2788 159.685 19.4429 159.783L21.9 161.252C22.0641 161.35 22.1177 161.565 22.0201 161.729Z" fill="#20B757"/>
<path d="M24.9781 156.783C24.8805 156.947 24.666 157.001 24.5019 156.903L22.0448 155.434C21.8807 155.336 21.8271 155.122 21.9247 154.958C22.0223 154.794 22.2368 154.74 22.4009 154.838L24.858 156.307C25.0221 156.405 25.0757 156.619 24.9781 156.783Z" fill="#20B757"/>
<path d="M27.9362 151.83C27.8386 151.994 27.624 152.048 27.46 151.95L25.0028 150.481C24.8387 150.383 24.7851 150.169 24.8827 150.005C24.9803 149.841 25.1948 149.787 25.3589 149.885L27.816 151.354C27.9801 151.452 28.0337 151.666 27.9362 151.83Z" fill="#20B757"/>
<path d="M30.5817 147.408C30.4841 147.572 30.2696 147.626 30.1055 147.528L27.6483 146.059C27.4842 145.961 27.4306 145.747 27.5282 145.583C27.6258 145.419 27.8403 145.365 28.0044 145.463L30.4615 146.932C30.6256 147.03 30.6793 147.244 30.5817 147.408Z" fill="#20B757"/>
</g>
<path d="M67.7578 112.743L69.0706 110.076C69.0706 110.076 69.314 107.151 69.9232 106.948C70.4241 106.781 70.5732 108.776 70.5732 108.776C70.5732 108.776 72.2795 105.283 72.7257 105.689C73.173 106.096 72.1165 108.817 72.1165 108.817L73.2781 109.343C74.0964 109.714 74.5039 110.642 74.224 111.496L73.972 112.264C73.8744 112.561 73.7038 112.83 73.4775 113.046L71.1706 115.236L68.1782 115.642L67.7589 112.745L67.7578 112.743Z" fill="#FAD7C3"/>
<path d="M52.2185 109.555L61.4754 117.093L68.2387 111.661L72.0086 116.206L63.9272 123.157C62.3688 124.498 60.1208 124.676 58.3715 123.596L50.9443 119.015L52.2196 109.555H52.2185Z" fill="#FFC861"/>
<path d="M71.5775 111.207C71.5378 111.207 71.5002 111.199 71.467 111.181C71.2407 111.062 71.2589 110.636 71.5281 109.758L71.7405 109.822C71.4144 110.887 71.5689 110.984 71.571 110.985C71.6815 111.039 72.1791 110.604 72.5963 110.082L72.7701 110.22C72.5191 110.534 71.94 111.207 71.5785 111.207H71.5775Z" fill="#D28572"/>
<path d="M73.1379 112.464C73.0854 112.464 73.0339 112.456 72.9835 112.439C72.8869 112.407 72.8194 112.339 72.7883 112.244C72.7304 112.067 72.8119 111.8 72.9331 111.537C72.7497 111.686 72.5534 111.805 72.3861 111.822C72.2863 111.831 72.1995 111.807 72.1308 111.751C71.7147 111.41 72.5008 110.285 72.6628 110.062L72.8419 110.193C72.4869 110.68 72.0911 111.432 72.2713 111.58C72.2863 111.592 72.3089 111.608 72.3636 111.603C72.6349 111.576 73.1411 111.069 73.3964 110.755L73.5723 110.889C73.3084 111.262 72.9202 111.939 72.9974 112.175C73.0071 112.203 73.0221 112.219 73.0521 112.229C73.39 112.343 73.9316 111.721 74.0946 111.494L74.2748 111.624C74.2072 111.717 73.6517 112.464 73.1379 112.464Z" fill="#D28572"/>
<path d="M76.4004 164.997L77.3978 173.755H89.8144L84.7145 169.431L82.8301 164.664L76.4004 164.997Z" fill="#222E48"/>
<path d="M57.627 134.992L71.7348 136.458C75.6581 136.866 78.9239 139.649 79.9493 143.459L86.083 166.256L82.7196 166.33L70.7095 149.553L57.627 134.992Z" fill="#404A60"/>
<path d="M63.8359 132.847L67.9372 132.07L71.2266 134.547L64.2424 134.657L63.8359 132.847Z" fill="#FAD7C3"/>
<path d="M56.8349 106.512L56.5378 107.75L55.682 111.325L55.5576 111.834L49.2383 110.451L50.5693 104.296L52.6757 103.852L56.8349 106.512Z" fill="#FAD7C3"/>
<path d="M56.5377 107.751L55.6818 111.326L55.669 111.339C54.0774 109.778 52.9855 108.154 52.4268 106.461L56.5377 107.751Z" fill="#FAD7C3"/>
<path d="M59.4705 103.617C59.4705 103.617 60.6041 105.209 60.2663 105.788C59.9284 106.367 58.6982 105.74 58.6982 105.74L59.4705 103.617Z" fill="#FAD7C3"/>
<path d="M60.5469 100.419C60.5469 100.419 59.6042 108.512 57.1653 108.568C54.7264 108.624 51.6225 106.239 51.6225 106.239L51.29 101.472L55.7796 98.3125L60.5469 100.419Z" fill="#FAD7C3"/>
<path d="M55.4467 102.804C55.7095 101.719 56.2264 100.75 57.6089 100.171C59.5877 101.858 61.6351 101.265 63.7341 98.9232C63.7341 98.9232 60.7685 99.1452 58.69 96.4285C56.6115 93.7119 52.2324 96.8447 52.2324 96.8447C48.4078 97.1214 48.2963 102.028 50.2643 105.659C50.8413 104.564 52.9531 103.496 54.4772 103.442L55.4467 102.805V102.804Z" fill="#343E56"/>
<path d="M56.2229 102.663C56.3966 103.496 55.9987 104.284 55.3337 104.423C54.6688 104.561 53.9899 103.997 53.8161 103.164C53.6424 102.33 54.0403 101.542 54.7053 101.404C55.3702 101.265 56.0491 101.829 56.2229 102.663Z" fill="#FAD7C3"/>
<path d="M55.0477 103.368C55.1539 102.933 54.993 102.496 54.5801 102.321L54.594 102.235C54.7227 102.227 54.8546 102.271 54.9651 102.348C55.0745 102.427 55.1582 102.54 55.2096 102.662C55.3072 102.909 55.2847 103.206 55.1238 103.407L55.0466 103.368H55.0477Z" fill="#343E56"/>
<path d="M59.2659 103.414C59.2048 103.629 59.0106 103.762 58.8315 103.711C58.6524 103.661 58.557 103.445 58.6181 103.23C58.6792 103.015 58.8734 102.882 59.0525 102.933C59.2316 102.983 59.327 103.199 59.2659 103.414Z" fill="#343E56"/>
<path d="M57.2764 105.57C57.4094 107.108 58.2191 107.362 58.6256 106.324L57.2764 105.57Z" fill="white"/>
<path d="M60.1694 102.596C60.1404 102.854 59.794 102.722 59.3607 102.672C58.9274 102.623 58.5821 102.579 58.6003 102.418C58.6185 102.257 58.9853 102.167 59.4186 102.217C59.8519 102.266 60.1984 102.352 60.1705 102.597L60.1694 102.596Z" fill="#343E56"/>
<path opacity="0.2" d="M56.7673 105.154C57.2542 105.154 57.649 104.759 57.649 104.272C57.649 103.785 57.2542 103.391 56.7673 103.391C56.2804 103.391 55.8857 103.785 55.8857 104.272C55.8857 104.759 56.2804 105.154 56.7673 105.154Z" fill="#222E48"/>
<path d="M73.4072 165.004L74.4047 173.763H86.8212L81.7214 169.439L79.837 164.672L73.4072 165.004Z" fill="#22C55E" fill-opacity="0.26"/>
<path d="M40.8125 133.848L42.2754 142.157C42.8503 145.425 45.5605 147.893 48.8682 148.161L66.5336 149.591L71.9659 166.332H82.72L75.5395 143.299C74.6987 140.601 72.4989 138.546 69.7501 137.889L57.6274 134.993L46.4668 131.297L40.8125 133.847V133.848Z" fill="#222E48"/>
<path d="M66.5332 149.422L69.2124 149.588C69.2124 149.588 68.9356 151.787 67.6604 152.932L66.5332 149.422Z" fill="#BE443D"/>
<path d="M81.6074 169.242L79.6172 170.555L79.8617 170.925L81.8519 169.613L81.6074 169.242Z" fill="#102048"/>
<path d="M58.3036 119.542L57.7577 132.06L57.629 134.96V134.987H57.4831L50.5825 134.96L41.0564 134.92C39.9828 134.916 39.172 133.94 39.3629 132.88C40.7379 125.337 42.5783 118.007 45.886 111.337C46.7461 109.607 48.755 108.73 50.6576 109.222L52.897 109.799C53.7347 110.017 54.538 110.366 55.2158 110.898C56.4621 111.878 57.1356 113.187 57.6279 115.036C58.0226 116.508 58.2264 118.021 58.3014 119.542H58.3036Z" fill="#20B757"/>
<path d="M73.7332 134.594H62.875V136.171H73.7332V134.594Z" fill="#343E56"/>
<path d="M59.8464 134.546L57.6295 134.963L57.4836 134.99L50.583 134.963C47.7355 132.049 46.7917 126.089 46.4678 118.656L57.7582 132.062L59.8464 134.545V134.546Z" fill="#FFC861"/>
<path d="M52.1575 113.337L56.5923 126.863L65.4245 132.073L63.8726 137.283L54.5599 134.29C52.1328 133.583 50.2334 130.949 49.4933 128.532L46.4678 118.658L52.1585 113.336L52.1575 113.337Z" fill="#20B757"/>
<path d="M73.7336 136.17H72.1816L80.7543 118.875H82.3073L73.7336 136.17Z" fill="#343E56"/>
<path d="M65.3691 132.17L56.5005 126.939L56.4876 126.899L52.0527 113.373L52.263 113.305L56.6849 126.789L65.4817 131.979L65.3691 132.17Z" fill="#343E56"/>
<path d="M246.024 63.5C240.636 63.5 236.268 67.8684 236.268 73.2567C236.268 75.0918 236.775 76.8089 237.657 78.275L234.662 81.9205L240.27 81.1354C241.883 82.3152 243.871 83.0134 246.022 83.0134C251.411 83.0134 255.779 78.645 255.779 73.2567C255.779 67.8684 251.411 63.5 246.022 63.5H246.024Z" fill="#20B757" fill-opacity="0.05"/>
<path d="M241.953 73.5463C242.117 72.851 241.686 72.1544 240.991 71.9903C240.296 71.8262 239.599 72.2568 239.435 72.9521C239.271 73.6473 239.701 74.344 240.397 74.5081C241.092 74.6722 241.788 74.2416 241.953 73.5463Z" fill="white"/>
<path d="M247.273 73.5463C247.437 72.8511 247.006 72.1544 246.311 71.9903C245.616 71.8262 244.919 72.2568 244.755 72.9521C244.591 73.6473 245.022 74.344 245.717 74.5081C246.412 74.6722 247.109 74.2416 247.273 73.5463Z" fill="white"/>
<path d="M252.595 73.5463C252.759 72.851 252.329 72.1544 251.633 71.9903C250.938 71.8262 250.241 72.2568 250.077 72.9521C249.913 73.6473 250.344 74.344 251.039 74.5081C251.734 74.6722 252.431 74.2416 252.595 73.5463Z" fill="white"/>
<path d="M29.652 76.3594C35.0403 76.3594 39.4087 80.7277 39.4087 86.1161C39.4087 87.9511 38.9014 89.6682 38.0198 91.1344L41.0142 94.7799L35.4061 93.9948C33.793 95.1745 31.8056 95.8728 29.6541 95.8728C24.2658 95.8728 19.8975 91.5044 19.8975 86.1161C19.8975 80.7277 24.2658 76.3594 29.6541 76.3594H29.652Z" fill="#20B757" fill-opacity="0.05"/>
<path d="M35.8893 87.024C36.3945 86.5189 36.3945 85.6999 35.8893 85.1948C35.3842 84.6896 34.5652 84.6896 34.0601 85.1948C33.555 85.6999 33.555 86.5189 34.0601 87.024C34.5652 87.5291 35.3842 87.5291 35.8893 87.024Z" fill="white"/>
<path d="M30.5681 87.024C31.0732 86.5189 31.0732 85.6999 30.5681 85.1948C30.0629 84.6896 29.244 84.6896 28.7388 85.1948C28.2337 85.6999 28.2337 86.5189 28.7388 87.024C29.244 87.5291 30.0629 87.5291 30.5681 87.024Z" fill="white"/>
<path d="M25.2458 87.024C25.7509 86.5189 25.7509 85.6999 25.2458 85.1948C24.7407 84.6896 23.9217 84.6896 23.4166 85.1948C22.9114 85.6999 22.9114 86.5189 23.4166 87.024C23.9217 87.5291 24.7407 87.5291 25.2458 87.024Z" fill="white"/>
<path d="M272 173.422H0V173.865H272V173.422Z" fill="#102048"/>
</g>
<defs>
<clipPath id="clip0_4579_45084">
<rect width="272" height="173.735" fill="white" transform="translate(0 0.265625)"/>
</clipPath>
</defs>
</svg>
