<svg width="190" height="38" viewBox="0 0 190 38" fill="none" xmlns="http://www.w3.org/2000/svg">
<g clip-path="url(#clip0_1307_7076)">
<path fill-rule="evenodd" clip-rule="evenodd" d="M18.2182 1C23.784 1 28.7608 3.5153 32.0697 7.468C29.059 4.38244 24.8507 2.46504 20.1933 2.46504C11.5809 2.46504 4.50388 9.01861 3.69632 17.4009L0.264454 20.7932C0.205866 20.2042 0.175781 19.6063 0.175781 19.0016C0.176309 9.05931 8.25403 1 18.2182 1ZM4.8438 25.2473C7.31346 31.2838 13.2551 35.5381 20.1938 35.5381C24.8512 35.5381 29.0585 33.6212 32.0697 30.5357C28.7603 34.4878 23.784 37.0026 18.2187 37.0026C10.2143 37.0026 3.42872 31.8019 1.06832 24.6024C2.3525 24.7449 3.61134 24.9609 4.8438 25.2473Z" fill="#20B757"/>
<path fill-rule="evenodd" clip-rule="evenodd" d="M20.055 3.87476C27.5315 3.87476 33.7545 9.17458 35.0914 16.181L32.4924 17.8381C31.8944 10.7048 25.8488 5.09928 18.4778 5.09928C14.164 5.09928 10.3041 7.0198 7.72461 10.0428C10.5104 6.30241 14.9958 3.87528 20.055 3.87528V3.87476Z" fill="#222E48"/>
<path fill-rule="evenodd" clip-rule="evenodd" d="M31.377 22.12C29.869 29.5391 13.0047 36.7042 16.0318 30.195L18.0739 31.2823C18.0739 31.2823 15.6454 28.3104 12.2178 28.1638L14.7571 29.5156C10.1746 34.8635 24.6885 39.8096 35.1166 24.592L35.2047 24.6504L36.9809 26.0659L35.9442 17.3325L29.4753 21.4574L31.377 22.1195V22.12Z" fill="#20B757"/>
<path fill-rule="evenodd" clip-rule="evenodd" d="M26.0761 10.936C22.0953 10.6887 18.1156 10.4414 14.1348 10.1941C18.294 15.7981 20.3899 21.999 20.4432 28.7904C21.2661 23.404 21.2001 18.0421 18.4154 12.7548C20.7314 12.7673 23.0464 12.7798 25.3625 12.7924C27.3043 14.9962 28.1156 18.617 28.5542 22.7028C29.2314 18.2941 28.3035 14.4045 26.0761 10.9365V10.936Z" fill="#222E48"/>
<path fill-rule="evenodd" clip-rule="evenodd" d="M10.7377 15.6854L14.718 13.7185L13.4786 11.9738C10.8248 12.9515 8.17144 13.9287 5.51758 14.9059C11.1077 18.2461 15.4991 23.2078 19.1865 29.1223C17.4969 24.0009 15.0315 19.3219 10.7372 15.6854H10.7377Z" fill="#222E48"/>
<path fill-rule="evenodd" clip-rule="evenodd" d="M7.95912 18.5065L5.96872 17.1698L-0.00195312 23.0717C6.21362 23.535 12.1959 25.6522 17.9101 29.679C14.4481 25.6486 10.2694 22.8834 5.40554 21.327L7.95912 18.506V18.5065Z" fill="#222E48"/>
<path d="M26.6978 20.0936C26.6393 19.6439 26.4477 19.3032 26.1231 19.071C25.7984 18.8388 25.306 18.6833 24.6446 18.604L24.4377 17.0221C24.8473 17.0545 25.2522 17.1833 25.6528 17.4082L26.0217 16.5651C25.7631 16.4232 25.4997 16.3157 25.23 16.2432C24.9608 16.1706 24.6694 16.1346 24.3554 16.1352L24.2899 15.6359L23.5573 15.7298L23.6207 16.2129C23.3594 16.2687 23.1266 16.3522 22.9213 16.4633C22.716 16.5745 22.5439 16.7091 22.4046 16.8677C22.2658 17.0268 22.1665 17.2058 22.1069 17.4051C22.0472 17.6044 22.0319 17.8157 22.0615 18.0374C22.0921 18.2706 22.1554 18.4726 22.252 18.6437C22.3486 18.8148 22.4801 18.9588 22.6469 19.0757C22.8136 19.1926 23.0153 19.287 23.2533 19.358C23.4908 19.4289 23.7695 19.4837 24.0883 19.5218L24.3021 21.1538C24.0213 21.1444 23.7547 21.0953 23.5035 21.0061C23.2523 20.9169 22.9926 20.7906 22.726 20.6273L22.2863 21.4538C22.6025 21.6447 22.9366 21.7882 23.2892 21.8842C23.6413 21.9802 24.0055 22.0266 24.3818 22.0235L24.491 22.8557L25.2237 22.7618L25.1154 21.9374C25.382 21.8806 25.619 21.7955 25.827 21.6813C26.0349 21.567 26.208 21.4308 26.3474 21.2717C26.4862 21.1131 26.587 20.9336 26.6493 20.7338C26.7116 20.534 26.7279 20.32 26.6978 20.0926V20.0936ZM23.9564 18.5143C23.6186 18.4616 23.3884 18.3828 23.266 18.2769C23.1435 18.1715 23.0707 18.0296 23.0475 17.8522C23.0237 17.6691 23.0702 17.5037 23.1879 17.356C23.3056 17.2084 23.4977 17.1061 23.7642 17.0493L23.9558 18.5143H23.9564ZM25.7119 20.2788C25.7377 20.4786 25.6881 20.6513 25.5615 20.7974C25.4348 20.9435 25.2384 21.0447 24.9719 21.1016L24.7745 19.5948C24.9439 19.624 25.0854 19.658 25.1988 19.6971C25.3123 19.7362 25.4057 19.7837 25.4786 19.839C25.5514 19.8948 25.6058 19.9585 25.6406 20.03C25.6755 20.1014 25.6992 20.1844 25.7119 20.2788Z" fill="#222E48"/>
</g>
<path d="M51.2955 31V7.72727H60.2045C61.8864 7.72727 63.2841 7.99242 64.3977 8.52273C65.5189 9.04545 66.3561 9.76136 66.9091 10.6705C67.4697 11.5795 67.75 12.6098 67.75 13.7614C67.75 14.7083 67.5682 15.5189 67.2045 16.1932C66.8409 16.8598 66.3523 17.4015 65.7386 17.8182C65.125 18.2348 64.4394 18.5341 63.6818 18.7159V18.9432C64.5076 18.9886 65.2992 19.2424 66.0568 19.7045C66.822 20.1591 67.447 20.803 67.9318 21.6364C68.4167 22.4697 68.6591 23.4773 68.6591 24.6591C68.6591 25.8636 68.3674 26.947 67.7841 27.9091C67.2008 28.8636 66.322 29.6174 65.1477 30.1705C63.9735 30.7235 62.4962 31 60.7159 31H51.2955ZM55.5114 27.4773H60.0455C61.5758 27.4773 62.678 27.1856 63.3523 26.6023C64.0341 26.0114 64.375 25.2538 64.375 24.3295C64.375 23.6402 64.2045 23.0189 63.8636 22.4659C63.5227 21.9053 63.0379 21.4659 62.4091 21.1477C61.7803 20.822 61.0303 20.6591 60.1591 20.6591H55.5114V27.4773ZM55.5114 17.625H59.6818C60.4091 17.625 61.0644 17.4924 61.6477 17.2273C62.2311 16.9545 62.6894 16.572 63.0227 16.0795C63.3636 15.5795 63.5341 14.9886 63.5341 14.3068C63.5341 13.4053 63.2159 12.6629 62.5795 12.0795C61.9508 11.4962 61.0152 11.2045 59.7727 11.2045H55.5114V17.625ZM77.1676 31.3523C76.0616 31.3523 75.0653 31.1553 74.179 30.7614C73.3002 30.3598 72.6032 29.7689 72.0881 28.9886C71.5805 28.2083 71.3267 27.2462 71.3267 26.1023C71.3267 25.1174 71.5085 24.303 71.8722 23.6591C72.2358 23.0152 72.732 22.5 73.3608 22.1136C73.9896 21.7273 74.6979 21.4356 75.4858 21.2386C76.2813 21.0341 77.1032 20.8864 77.9517 20.7955C78.9744 20.6894 79.804 20.5947 80.4403 20.5114C81.0767 20.4205 81.5388 20.2841 81.8267 20.1023C82.1222 19.9129 82.2699 19.6212 82.2699 19.2273V19.1591C82.2699 18.303 82.0161 17.6402 81.5085 17.1705C81.0009 16.7008 80.2699 16.4659 79.3153 16.4659C78.3078 16.4659 77.5085 16.6856 76.9176 17.125C76.3343 17.5644 75.9403 18.0833 75.7358 18.6818L71.8949 18.1364C72.1979 17.0758 72.6979 16.1894 73.3949 15.4773C74.0919 14.7576 74.9441 14.2197 75.9517 13.8636C76.9593 13.5 78.0729 13.3182 79.2926 13.3182C80.1335 13.3182 80.9706 13.4167 81.804 13.6136C82.6373 13.8106 83.3987 14.1364 84.0881 14.5909C84.7775 15.0379 85.3305 15.6477 85.7472 16.4205C86.1714 17.1932 86.3835 18.1591 86.3835 19.3182V31H82.429V28.6023H82.2926C82.0426 29.0871 81.6903 29.5417 81.2358 29.9659C80.7888 30.3826 80.2244 30.7197 79.5426 30.9773C78.8684 31.2273 78.0767 31.3523 77.1676 31.3523ZM78.2358 28.3295C79.0616 28.3295 79.7775 28.1667 80.3835 27.8409C80.9896 27.5076 81.4555 27.0682 81.7812 26.5227C82.1146 25.9773 82.2812 25.3826 82.2812 24.7386V22.6818C82.1525 22.7879 81.9328 22.8864 81.6222 22.9773C81.3191 23.0682 80.9782 23.1477 80.5994 23.2159C80.2206 23.2841 79.8456 23.3447 79.4744 23.3977C79.1032 23.4508 78.7813 23.4962 78.5085 23.5341C77.8949 23.6174 77.3456 23.7538 76.8608 23.9432C76.3759 24.1326 75.9934 24.3977 75.7131 24.7386C75.4328 25.072 75.2926 25.5038 75.2926 26.0341C75.2926 26.7917 75.5691 27.3636 76.1222 27.75C76.6752 28.1364 77.3797 28.3295 78.2358 28.3295ZM94.6335 20.7727V31H90.5199V13.5455H94.4517V16.5114H94.6562C95.0578 15.5341 95.6979 14.7576 96.5767 14.1818C97.4631 13.6061 98.5578 13.3182 99.8608 13.3182C101.065 13.3182 102.115 13.5758 103.009 14.0909C103.91 14.6061 104.607 15.3523 105.099 16.3295C105.599 17.3068 105.846 18.4924 105.838 19.8864V31H101.724V20.5227C101.724 19.3561 101.421 18.4432 100.815 17.7841C100.217 17.125 99.3873 16.7955 98.3267 16.7955C97.607 16.7955 96.9669 16.9545 96.4062 17.2727C95.8532 17.5833 95.4176 18.0341 95.0994 18.625C94.7888 19.2159 94.6335 19.9318 94.6335 20.7727ZM113.77 25.5227L113.759 20.5568H114.418L120.69 13.5455H125.497L117.781 22.1364H116.929L113.77 25.5227ZM110.02 31V7.72727H114.134V31H110.02ZM120.974 31L115.293 23.0568L118.065 20.1591L125.895 31H120.974Z" fill="#20B757"/>
<path d="M128.42 31V7.72727H132.636V17.5795H143.42V7.72727H147.648V31H143.42V21.1136H132.636V31H128.42ZM163.176 23.6591V13.5455H167.29V31H163.301V27.8977H163.119C162.725 28.875 162.078 29.6742 161.176 30.2955C160.282 30.9167 159.18 31.2273 157.869 31.2273C156.725 31.2273 155.714 30.9735 154.835 30.4659C153.964 29.9508 153.282 29.2045 152.79 28.2273C152.297 27.2424 152.051 26.053 152.051 24.6591V13.5455H156.165V24.0227C156.165 25.1288 156.468 26.0076 157.074 26.6591C157.68 27.3106 158.475 27.6364 159.46 27.6364C160.066 27.6364 160.653 27.4886 161.222 27.1932C161.79 26.8977 162.256 26.4583 162.619 25.875C162.991 25.2841 163.176 24.5455 163.176 23.6591ZM171.702 31V7.72727H175.815V16.4318H175.986C176.198 16.0076 176.497 15.5568 176.884 15.0795C177.27 14.5947 177.793 14.1818 178.452 13.8409C179.111 13.4924 179.952 13.3182 180.974 13.3182C182.323 13.3182 183.539 13.6629 184.622 14.3523C185.713 15.0341 186.577 16.0455 187.213 17.3864C187.857 18.7197 188.179 20.3561 188.179 22.2955C188.179 24.2121 187.865 25.8409 187.236 27.1818C186.607 28.5227 185.751 29.5455 184.668 30.25C183.584 30.9545 182.357 31.3068 180.986 31.3068C179.986 31.3068 179.156 31.1402 178.497 30.8068C177.838 30.4735 177.308 30.072 176.906 29.6023C176.512 29.125 176.205 28.6742 175.986 28.25H175.747V31H171.702ZM175.736 22.2727C175.736 23.4015 175.895 24.3902 176.213 25.2386C176.539 26.0871 177.005 26.75 177.611 27.2273C178.224 27.697 178.967 27.9318 179.838 27.9318C180.747 27.9318 181.509 27.6894 182.122 27.2045C182.736 26.7121 183.198 26.0417 183.509 25.1932C183.827 24.3371 183.986 23.3636 183.986 22.2727C183.986 21.1894 183.83 20.2273 183.52 19.3864C183.209 18.5455 182.747 17.8864 182.134 17.4091C181.52 16.9318 180.755 16.6932 179.838 16.6932C178.959 16.6932 178.213 16.9242 177.599 17.3864C176.986 17.8485 176.52 18.4962 176.202 19.3295C175.891 20.1629 175.736 21.1439 175.736 22.2727Z" fill="#222E48"/>
<defs>
<clipPath id="clip0_1307_7076">
<rect width="37" height="36" fill="white" transform="translate(0 1)"/>
</clipPath>
</defs>
</svg>
