<svg width="37" height="36" viewBox="0 0 37 36" fill="none" xmlns="http://www.w3.org/2000/svg">
<g clip-path="url(#clip0_3611_305)">
<path fill-rule="evenodd" clip-rule="evenodd" d="M18.2182 0C23.784 0 28.7608 2.5153 32.0697 6.468C29.059 3.38244 24.8507 1.46504 20.1933 1.46504C11.5809 1.46504 4.50388 8.01861 3.69632 16.4009L0.264454 19.7932C0.205866 19.2042 0.175781 18.6063 0.175781 18.0016C0.176309 8.05931 8.25403 0 18.2182 0ZM4.8438 24.2473C7.31346 30.2838 13.2551 34.5381 20.1938 34.5381C24.8512 34.5381 29.0585 32.6212 32.0697 29.5357C28.7603 33.4878 23.784 36.0026 18.2187 36.0026C10.2143 36.0026 3.42872 30.8019 1.06832 23.6024C2.3525 23.7449 3.61134 23.9609 4.8438 24.2473Z" fill="#20B757"/>
<path fill-rule="evenodd" clip-rule="evenodd" d="M20.055 2.87476C27.5315 2.87476 33.7545 8.17458 35.0914 15.181L32.4924 16.8381C31.8944 9.70484 25.8488 4.09928 18.4778 4.09928C14.164 4.09928 10.3041 6.0198 7.72461 9.04276C10.5104 5.30241 14.9958 2.87528 20.055 2.87528V2.87476Z" fill="#343E56"/>
<path fill-rule="evenodd" clip-rule="evenodd" d="M31.377 21.12C29.869 28.5391 13.0047 35.7042 16.0318 29.195L18.0739 30.2823C18.0739 30.2823 15.6454 27.3104 12.2178 27.1638L14.7571 28.5156C10.1746 33.8635 24.6885 38.8096 35.1166 23.592L35.2047 23.6504L36.9809 25.0659L35.9442 16.3325L29.4753 20.4574L31.377 21.1195V21.12Z" fill="#20B757"/>
<path fill-rule="evenodd" clip-rule="evenodd" d="M26.0761 9.936C22.0953 9.6887 18.1156 9.4414 14.1348 9.19409C18.294 14.7981 20.3899 20.999 20.4432 27.7904C21.2661 22.404 21.2001 17.0421 18.4154 11.7548C20.7314 11.7673 23.0464 11.7798 25.3625 11.7924C27.3043 13.9962 28.1156 17.617 28.5542 21.7028C29.2314 17.2941 28.3035 13.4045 26.0761 9.93653V9.936Z" fill="#343E56"/>
<path fill-rule="evenodd" clip-rule="evenodd" d="M10.7377 14.6854L14.718 12.7185L13.4786 10.9738C10.8248 11.9515 8.17144 12.9287 5.51758 13.9059C11.1077 17.2461 15.4991 22.2078 19.1865 28.1223C17.4969 23.0009 15.0315 18.3219 10.7372 14.6854H10.7377Z" fill="#343E56"/>
<path fill-rule="evenodd" clip-rule="evenodd" d="M7.95912 17.5065L5.96872 16.1698L-0.00195312 22.0717C6.21362 22.535 12.1959 24.6522 17.9101 28.679C14.4481 24.6486 10.2694 21.8834 5.40554 20.327L7.95912 17.506V17.5065Z" fill="#343E56"/>
<path d="M26.6978 19.0936C26.6393 18.6439 26.4477 18.3032 26.1231 18.071C25.7984 17.8388 25.306 17.6833 24.6446 17.604L24.4377 16.0221C24.8473 16.0545 25.2522 16.1833 25.6528 16.4082L26.0217 15.5651C25.7631 15.4232 25.4997 15.3157 25.23 15.2432C24.9608 15.1706 24.6694 15.1346 24.3554 15.1352L24.2899 14.6359L23.5573 14.7298L23.6207 15.2129C23.3594 15.2687 23.1266 15.3522 22.9213 15.4633C22.716 15.5745 22.5439 15.7091 22.4046 15.8677C22.2658 16.0268 22.1665 16.2058 22.1069 16.4051C22.0472 16.6044 22.0319 16.8157 22.0615 17.0374C22.0921 17.2706 22.1554 17.4726 22.252 17.6437C22.3486 17.8148 22.4801 17.9588 22.6469 18.0757C22.8136 18.1926 23.0153 18.287 23.2533 18.358C23.4908 18.4289 23.7695 18.4837 24.0883 18.5218L24.3021 20.1538C24.0213 20.1444 23.7547 20.0953 23.5035 20.0061C23.2523 19.9169 22.9926 19.7906 22.726 19.6273L22.2863 20.4538C22.6025 20.6447 22.9366 20.7882 23.2892 20.8842C23.6413 20.9802 24.0055 21.0266 24.3818 21.0235L24.491 21.8557L25.2237 21.7618L25.1154 20.9374C25.382 20.8806 25.619 20.7955 25.827 20.6813C26.0349 20.567 26.208 20.4308 26.3474 20.2717C26.4862 20.1131 26.587 19.9336 26.6493 19.7338C26.7116 19.534 26.7279 19.32 26.6978 19.0926V19.0936ZM23.9564 17.5143C23.6186 17.4616 23.3884 17.3828 23.266 17.2769C23.1435 17.1715 23.0707 17.0296 23.0475 16.8522C23.0237 16.6691 23.0702 16.5037 23.1879 16.356C23.3056 16.2084 23.4977 16.1061 23.7642 16.0493L23.9558 17.5143H23.9564ZM25.7119 19.2788C25.7377 19.4786 25.6881 19.6513 25.5615 19.7974C25.4348 19.9435 25.2384 20.0447 24.9719 20.1016L24.7745 18.5948C24.9439 18.624 25.0854 18.658 25.1988 18.6971C25.3123 18.7362 25.4057 18.7837 25.4786 18.839C25.5514 18.8948 25.6058 18.9585 25.6406 19.03C25.6755 19.1014 25.6992 19.1844 25.7119 19.2788Z" fill="#343E56"/>
</g>
<defs>
<clipPath id="clip0_3611_305">
<rect width="37" height="36" fill="white"/>
</clipPath>
</defs>
</svg>
