<svg width="432.00000000000006" height="352" xmlns="http://www.w3.org/2000/svg">

 <g>
  <title>background</title>
  <rect fill="none" id="canvas_background" height="354" width="434" y="-1" x="-1"/>
 </g>
 <g>
  <title>Layer 1</title>
  <path id="svg_2" fill="#0068A9" d="m392.138395,2.502895l-350.936,0c-19.893,0 -36.033,16.141 -36.033,36.034l0,272.602c0,19.895 16.14,36.035 36.033,36.035l350.936,0c19.894,0 36.033,-16.141 36.033,-36.035l0,-272.602c0,-19.894 -16.14,-36.034 -36.033,-36.034z"/>
  <path id="svg_3" fill="#FFFFFF" d="m248.914395,301.738893l-67.788,0c-79.724,0 -138.357,-51.227 -138.357,-124.697c0,-80.419 58.633,-129.104 138.357,-129.104l67.788,0c78.822,0 141.656,48.685 141.656,129.104c0,73.471 -62.834,124.697 -141.656,124.697z"/>
  <path id="svg_4" fill="#0068A9" d="m181.352395,80.466393c-52.018,0 -94.373,42.194 -94.373,94.372c0,52.016 42.355,94.372 94.373,94.372c52.179,0 94.371,-42.355 94.371,-94.372c0,-52.178 -42.193,-94.372 -94.371,-94.372z"/>
  <path id="svg_5" fill="#FFFFFF" d="m159.932395,230.639887c-22.385,-8.535 -38.328,-30.277 -38.328,-55.721c0,-25.445 15.943,-47.186 38.328,-55.882l0,111.603z"/>
  <path id="svg_6" fill="#FFFFFF" d="m202.771395,230.721386l0,-111.766c22.386,8.697 38.329,30.437 38.329,55.882c0,25.444 -15.944,47.186 -38.329,55.884l0,0z"/>
 </g>
</svg>