<svg width="542" height="282" xmlns="http://www.w3.org/2000/svg">

 <g>
  <title>background</title>
  <rect fill="none" id="canvas_background" height="284" width="544" y="-1" x="-1"/>
 </g>
 <g>
  <title>Layer 1</title>
  <path id="svg_2" fill-rule="evenodd" clip-rule="evenodd" fill="#005BAC" d="m218.478838,67.171257l-23.465,144.208l37.542,0l23.468,-144.208l-37.545,0zm-55.052,0l-35.794,99.185l-4.234,-21.358l0.003,0.007l-0.933,-4.787c-4.332,-9.336 -14.365,-27.08 -33.31,-42.223c-5.601,-4.476 -11.247,-8.296 -16.705,-11.559l32.531,124.943l39.116,0l59.733,-144.208l-40.407,0zm146.521,40.035c0,-16.304 36.563,-14.209 52.629,-5.356l5.357,-30.972c0,0 -16.534,-6.288 -33.768,-6.288c-18.632,0 -62.875,8.148 -62.875,47.739c0,37.26 51.928,37.723 51.928,57.285c0,19.562 -46.574,16.066 -61.944,3.726l-5.586,32.373c0,0 16.763,8.148 42.382,8.148c25.616,0 64.272,-13.271 64.272,-49.37c0,-37.493 -52.395,-40.985 -52.395,-57.285zm153.2,-40.035l-30.185,0c-13.938,0 -17.332,10.747 -17.332,10.747l-55.988,133.461l39.131,0l7.828,-21.419l47.728,0l4.403,21.419l34.472,0l-30.057,-144.208zm-45.727,93.196l19.728,-53.966l11.098,53.966l-30.826,0z"/>
  <path id="svg_4" fill-rule="evenodd" clip-rule="evenodd" fill="#F6AC1D" d="m111.282838,80.748257c0,0 -1.554,-13.015 -18.144,-13.015l-60.273,0l-0.706,2.446c0,0 28.972,5.906 56.767,28.033c26.562,21.148 35.227,47.51 35.227,47.51l-12.871,-64.974z"/>
 </g>
</svg>